ISO-10303-21;
HEADER;
FILE_DESCRIPTION(('FreeCAD Model'),'2;1');
FILE_NAME('Open CASCADE Shape Model','2026-08-16T14:27:53',(''),(''),
  'Open CASCADE STEP processor 7.8','FreeCAD','Unknown');
FILE_SCHEMA(('AUTOMOTIVE_DESIGN { 1 0 10303 214 1 1 1 1 }'));
ENDSEC;
DATA;
#1 = APPLICATION_PROTOCOL_DEFINITION('international standard',
  'automotive_design',2000,#2);
#2 = APPLICATION_CONTEXT(
  'core data for automotive mechanical design processes');
#3 = SHAPE_DEFINITION_REPRESENTATION(#4,#10);
#4 = PRODUCT_DEFINITION_SHAPE('','',#5);
#5 = PRODUCT_DEFINITION('design','',#6,#9);
#6 = PRODUCT_DEFINITION_FORMATION('','',#7);
#7 = PRODUCT('Body','Body','',(#8));
#8 = PRODUCT_CONTEXT('',#2,'mechanical');
#9 = PRODUCT_DEFINITION_CONTEXT('part definition',#2,'design');
#10 = ADVANCED_BREP_SHAPE_REPRESENTATION('',(#11,#15),#1901);
#11 = AXIS2_PLACEMENT_3D('',#12,#13,#14);
#12 = CARTESIAN_POINT('',(0.,0.,0.));
#13 = DIRECTION('',(0.,0.,1.));
#14 = DIRECTION('',(1.,0.,-0.));
#15 = MANIFOLD_SOLID_BREP('',#16);
#16 = CLOSED_SHELL('',(#17,#79,#110,#143,#269,#334,#360,#386,#411,#498,
    #522,#540,#571,#596,#621,#645,#739,#764,#789,#806,#855,#877,#894,
    #911,#936,#961,#973,#1006,#1032,#1058,#1083,#1108,#1134,#1160,#1177,
    #1210,#1227,#1244,#1269,#1294,#1316,#1333,#1350,#1367,#1384,#1401,
    #1434,#1467,#1498,#1523,#1548,#1572,#1596,#1621,#1646,#1663,#1675,
    #1684,#1693,#1726,#1743,#1760,#1785,#1810,#1827,#1844,#1861,#1873,
    #1887));
#17 = ADVANCED_FACE('',(#18,#52,#63),#74,.T.);
#18 = FACE_BOUND('',#19,.T.);
#19 = EDGE_LOOP('',(#20,#30,#38,#46));
#20 = ORIENTED_EDGE('',*,*,#21,.T.);
#21 = EDGE_CURVE('',#22,#24,#26,.T.);
#22 = VERTEX_POINT('',#23);
#23 = CARTESIAN_POINT('',(-51.5,56.,4.));
#24 = VERTEX_POINT('',#25);
#25 = CARTESIAN_POINT('',(-51.5,56.,19.));
#26 = LINE('',#27,#28);
#27 = CARTESIAN_POINT('',(-51.5,56.,0.));
#28 = VECTOR('',#29,1.);
#29 = DIRECTION('',(0.,0.,1.));
#30 = ORIENTED_EDGE('',*,*,#31,.T.);
#31 = EDGE_CURVE('',#24,#32,#34,.T.);
#32 = VERTEX_POINT('',#33);
#33 = CARTESIAN_POINT('',(-51.5,-56.,19.));
#34 = LINE('',#35,#36);
#35 = CARTESIAN_POINT('',(-51.5,56.,19.));
#36 = VECTOR('',#37,1.);
#37 = DIRECTION('',(0.,-1.,0.));
#38 = ORIENTED_EDGE('',*,*,#39,.F.);
#39 = EDGE_CURVE('',#40,#32,#42,.T.);
#40 = VERTEX_POINT('',#41);
#41 = CARTESIAN_POINT('',(-51.5,-56.,4.));
#42 = LINE('',#43,#44);
#43 = CARTESIAN_POINT('',(-51.5,-56.,0.));
#44 = VECTOR('',#45,1.);
#45 = DIRECTION('',(0.,0.,1.));
#46 = ORIENTED_EDGE('',*,*,#47,.F.);
#47 = EDGE_CURVE('',#22,#40,#48,.T.);
#48 = LINE('',#49,#50);
#49 = CARTESIAN_POINT('',(-51.5,56.,4.));
#50 = VECTOR('',#51,1.);
#51 = DIRECTION('',(0.,-1.,0.));
#52 = FACE_BOUND('',#53,.T.);
#53 = EDGE_LOOP('',(#54));
#54 = ORIENTED_EDGE('',*,*,#55,.F.);
#55 = EDGE_CURVE('',#56,#56,#58,.T.);
#56 = VERTEX_POINT('',#57);
#57 = CARTESIAN_POINT('',(-51.5,-38.970163,10.));
#58 = CIRCLE('',#59,1.029837);
#59 = AXIS2_PLACEMENT_3D('',#60,#61,#62);
#60 = CARTESIAN_POINT('',(-51.5,-40.,10.));
#61 = DIRECTION('',(1.,0.,0.));
#62 = DIRECTION('',(0.,1.,0.));
#63 = FACE_BOUND('',#64,.T.);
#64 = EDGE_LOOP('',(#65));
#65 = ORIENTED_EDGE('',*,*,#66,.F.);
#66 = EDGE_CURVE('',#67,#67,#69,.T.);
#67 = VERTEX_POINT('',#68);
#68 = CARTESIAN_POINT('',(-51.5,41.029837,10.));
#69 = CIRCLE('',#70,1.029837);
#70 = AXIS2_PLACEMENT_3D('',#71,#72,#73);
#71 = CARTESIAN_POINT('',(-51.5,40.,10.));
#72 = DIRECTION('',(1.,0.,0.));
#73 = DIRECTION('',(0.,1.,0.));
#74 = PLANE('',#75);
#75 = AXIS2_PLACEMENT_3D('',#76,#77,#78);
#76 = CARTESIAN_POINT('',(-51.5,56.,0.));
#77 = DIRECTION('',(1.,0.,0.));
#78 = DIRECTION('',(0.,-1.,0.));
#79 = ADVANCED_FACE('',(#80),#105,.T.);
#80 = FACE_BOUND('',#81,.T.);
#81 = EDGE_LOOP('',(#82,#83,#91,#99));
#82 = ORIENTED_EDGE('',*,*,#21,.F.);
#83 = ORIENTED_EDGE('',*,*,#84,.F.);
#84 = EDGE_CURVE('',#85,#22,#87,.T.);
#85 = VERTEX_POINT('',#86);
#86 = CARTESIAN_POINT('',(51.5,56.,4.));
#87 = LINE('',#88,#89);
#88 = CARTESIAN_POINT('',(51.5,56.,4.));
#89 = VECTOR('',#90,1.);
#90 = DIRECTION('',(-1.,0.,0.));
#91 = ORIENTED_EDGE('',*,*,#92,.T.);
#92 = EDGE_CURVE('',#85,#93,#95,.T.);
#93 = VERTEX_POINT('',#94);
#94 = CARTESIAN_POINT('',(51.5,56.,19.));
#95 = LINE('',#96,#97);
#96 = CARTESIAN_POINT('',(51.5,56.,0.));
#97 = VECTOR('',#98,1.);
#98 = DIRECTION('',(0.,0.,1.));
#99 = ORIENTED_EDGE('',*,*,#100,.T.);
#100 = EDGE_CURVE('',#93,#24,#101,.T.);
#101 = LINE('',#102,#103);
#102 = CARTESIAN_POINT('',(51.5,56.,19.));
#103 = VECTOR('',#104,1.);
#104 = DIRECTION('',(-1.,0.,0.));
#105 = PLANE('',#106);
#106 = AXIS2_PLACEMENT_3D('',#107,#108,#109);
#107 = CARTESIAN_POINT('',(51.5,56.,0.));
#108 = DIRECTION('',(0.,-1.,0.));
#109 = DIRECTION('',(-1.,0.,0.));
#110 = ADVANCED_FACE('',(#111),#138,.F.);
#111 = FACE_BOUND('',#112,.F.);
#112 = EDGE_LOOP('',(#113,#122,#130,#137));
#113 = ORIENTED_EDGE('',*,*,#114,.T.);
#114 = EDGE_CURVE('',#22,#115,#117,.T.);
#115 = VERTEX_POINT('',#116);
#116 = CARTESIAN_POINT('',(-49.5,54.,2.));
#117 = ELLIPSE('',#118,2.828427124746,2.);
#118 = AXIS2_PLACEMENT_3D('',#119,#120,#121);
#119 = CARTESIAN_POINT('',(-49.5,54.,4.));
#120 = DIRECTION('',(-0.707106781187,-0.707106781187,-0.));
#121 = DIRECTION('',(-0.707106781187,0.707106781187,0.));
#122 = ORIENTED_EDGE('',*,*,#123,.T.);
#123 = EDGE_CURVE('',#115,#124,#126,.T.);
#124 = VERTEX_POINT('',#125);
#125 = CARTESIAN_POINT('',(-49.5,-54.,2.));
#126 = LINE('',#127,#128);
#127 = CARTESIAN_POINT('',(-49.5,56.,2.));
#128 = VECTOR('',#129,1.);
#129 = DIRECTION('',(0.,-1.,0.));
#130 = ORIENTED_EDGE('',*,*,#131,.F.);
#131 = EDGE_CURVE('',#40,#124,#132,.T.);
#132 = ELLIPSE('',#133,2.828427124746,2.);
#133 = AXIS2_PLACEMENT_3D('',#134,#135,#136);
#134 = CARTESIAN_POINT('',(-49.5,-54.,4.));
#135 = DIRECTION('',(0.707106781187,-0.707106781187,0.));
#136 = DIRECTION('',(-0.707106781187,-0.707106781187,0.));
#137 = ORIENTED_EDGE('',*,*,#47,.F.);
#138 = CYLINDRICAL_SURFACE('',#139,2.);
#139 = AXIS2_PLACEMENT_3D('',#140,#141,#142);
#140 = CARTESIAN_POINT('',(-49.5,56.,4.));
#141 = DIRECTION('',(0.,-1.,0.));
#142 = DIRECTION('',(-1.,0.,0.));
#143 = ADVANCED_FACE('',(#144,#214),#264,.T.);
#144 = FACE_BOUND('',#145,.T.);
#145 = EDGE_LOOP('',(#146,#156,#165,#173,#182,#190,#199,#207));
#146 = ORIENTED_EDGE('',*,*,#147,.T.);
#147 = EDGE_CURVE('',#148,#150,#152,.T.);
#148 = VERTEX_POINT('',#149);
#149 = CARTESIAN_POINT('',(-53.5,56.,19.));
#150 = VERTEX_POINT('',#151);
#151 = CARTESIAN_POINT('',(-53.5,-56.,19.));
#152 = LINE('',#153,#154);
#153 = CARTESIAN_POINT('',(-53.5,58.,19.));
#154 = VECTOR('',#155,1.);
#155 = DIRECTION('',(0.,-1.,0.));
#156 = ORIENTED_EDGE('',*,*,#157,.T.);
#157 = EDGE_CURVE('',#150,#158,#160,.T.);
#158 = VERTEX_POINT('',#159);
#159 = CARTESIAN_POINT('',(-51.5,-58.,19.));
#160 = CIRCLE('',#161,2.);
#161 = AXIS2_PLACEMENT_3D('',#162,#163,#164);
#162 = CARTESIAN_POINT('',(-51.5,-56.,19.));
#163 = DIRECTION('',(-0.,0.,1.));
#164 = DIRECTION('',(0.,-1.,0.));
#165 = ORIENTED_EDGE('',*,*,#166,.T.);
#166 = EDGE_CURVE('',#158,#167,#169,.T.);
#167 = VERTEX_POINT('',#168);
#168 = CARTESIAN_POINT('',(51.5,-58.,19.));
#169 = LINE('',#170,#171);
#170 = CARTESIAN_POINT('',(-53.5,-58.,19.));
#171 = VECTOR('',#172,1.);
#172 = DIRECTION('',(1.,0.,0.));
#173 = ORIENTED_EDGE('',*,*,#174,.T.);
#174 = EDGE_CURVE('',#167,#175,#177,.T.);
#175 = VERTEX_POINT('',#176);
#176 = CARTESIAN_POINT('',(53.5,-56.,19.));
#177 = CIRCLE('',#178,2.);
#178 = AXIS2_PLACEMENT_3D('',#179,#180,#181);
#179 = CARTESIAN_POINT('',(51.5,-56.,19.));
#180 = DIRECTION('',(-0.,0.,1.));
#181 = DIRECTION('',(0.,-1.,0.));
#182 = ORIENTED_EDGE('',*,*,#183,.T.);
#183 = EDGE_CURVE('',#175,#184,#186,.T.);
#184 = VERTEX_POINT('',#185);
#185 = CARTESIAN_POINT('',(53.5,56.,19.));
#186 = LINE('',#187,#188);
#187 = CARTESIAN_POINT('',(53.5,-58.,19.));
#188 = VECTOR('',#189,1.);
#189 = DIRECTION('',(0.,1.,0.));
#190 = ORIENTED_EDGE('',*,*,#191,.F.);
#191 = EDGE_CURVE('',#192,#184,#194,.T.);
#192 = VERTEX_POINT('',#193);
#193 = CARTESIAN_POINT('',(51.5,58.,19.));
#194 = CIRCLE('',#195,2.);
#195 = AXIS2_PLACEMENT_3D('',#196,#197,#198);
#196 = CARTESIAN_POINT('',(51.5,56.,19.));
#197 = DIRECTION('',(-0.,-0.,-1.));
#198 = DIRECTION('',(0.,-1.,0.));
#199 = ORIENTED_EDGE('',*,*,#200,.T.);
#200 = EDGE_CURVE('',#192,#201,#203,.T.);
#201 = VERTEX_POINT('',#202);
#202 = CARTESIAN_POINT('',(-51.5,58.,19.));
#203 = LINE('',#204,#205);
#204 = CARTESIAN_POINT('',(53.5,58.,19.));
#205 = VECTOR('',#206,1.);
#206 = DIRECTION('',(-1.,0.,0.));
#207 = ORIENTED_EDGE('',*,*,#208,.F.);
#208 = EDGE_CURVE('',#148,#201,#209,.T.);
#209 = CIRCLE('',#210,2.);
#210 = AXIS2_PLACEMENT_3D('',#211,#212,#213);
#211 = CARTESIAN_POINT('',(-51.5,56.,19.));
#212 = DIRECTION('',(-0.,-0.,-1.));
#213 = DIRECTION('',(0.,-1.,0.));
#214 = FACE_BOUND('',#215,.T.);
#215 = EDGE_LOOP('',(#216,#217,#218,#226,#234,#242,#250,#258));
#216 = ORIENTED_EDGE('',*,*,#31,.F.);
#217 = ORIENTED_EDGE('',*,*,#100,.F.);
#218 = ORIENTED_EDGE('',*,*,#219,.F.);
#219 = EDGE_CURVE('',#220,#93,#222,.T.);
#220 = VERTEX_POINT('',#221);
#221 = CARTESIAN_POINT('',(51.5,-56.,19.));
#222 = LINE('',#223,#224);
#223 = CARTESIAN_POINT('',(51.5,-56.,19.));
#224 = VECTOR('',#225,1.);
#225 = DIRECTION('',(0.,1.,0.));
#226 = ORIENTED_EDGE('',*,*,#227,.F.);
#227 = EDGE_CURVE('',#228,#220,#230,.T.);
#228 = VERTEX_POINT('',#229);
#229 = CARTESIAN_POINT('',(-9.,-56.,19.));
#230 = LINE('',#231,#232);
#231 = CARTESIAN_POINT('',(-51.5,-56.,19.));
#232 = VECTOR('',#233,1.);
#233 = DIRECTION('',(1.,0.,0.));
#234 = ORIENTED_EDGE('',*,*,#235,.F.);
#235 = EDGE_CURVE('',#236,#228,#238,.T.);
#236 = VERTEX_POINT('',#237);
#237 = CARTESIAN_POINT('',(-9.,-57.,19.));
#238 = LINE('',#239,#240);
#239 = CARTESIAN_POINT('',(-9.,-57.,19.));
#240 = VECTOR('',#241,1.);
#241 = DIRECTION('',(0.,1.,0.));
#242 = ORIENTED_EDGE('',*,*,#243,.F.);
#243 = EDGE_CURVE('',#244,#236,#246,.T.);
#244 = VERTEX_POINT('',#245);
#245 = CARTESIAN_POINT('',(-19.,-57.,19.));
#246 = LINE('',#247,#248);
#247 = CARTESIAN_POINT('',(-19.,-57.,19.));
#248 = VECTOR('',#249,1.);
#249 = DIRECTION('',(1.,0.,0.));
#250 = ORIENTED_EDGE('',*,*,#251,.F.);
#251 = EDGE_CURVE('',#252,#244,#254,.T.);
#252 = VERTEX_POINT('',#253);
#253 = CARTESIAN_POINT('',(-19.,-56.,19.));
#254 = LINE('',#255,#256);
#255 = CARTESIAN_POINT('',(-19.,-55.,19.));
#256 = VECTOR('',#257,1.);
#257 = DIRECTION('',(0.,-1.,0.));
#258 = ORIENTED_EDGE('',*,*,#259,.F.);
#259 = EDGE_CURVE('',#32,#252,#260,.T.);
#260 = LINE('',#261,#262);
#261 = CARTESIAN_POINT('',(-51.5,-56.,19.));
#262 = VECTOR('',#263,1.);
#263 = DIRECTION('',(1.,0.,0.));
#264 = PLANE('',#265);
#265 = AXIS2_PLACEMENT_3D('',#266,#267,#268);
#266 = CARTESIAN_POINT('',(0.,0.,19.));
#267 = DIRECTION('',(0.,0.,1.));
#268 = DIRECTION('',(1.,0.,0.));
#269 = ADVANCED_FACE('',(#270),#329,.T.);
#270 = FACE_BOUND('',#271,.T.);
#271 = EDGE_LOOP('',(#272,#280,#281,#282,#290,#299,#307,#316,#322,#323)
  );
#272 = ORIENTED_EDGE('',*,*,#273,.F.);
#273 = EDGE_CURVE('',#40,#274,#276,.T.);
#274 = VERTEX_POINT('',#275);
#275 = CARTESIAN_POINT('',(51.5,-56.,4.));
#276 = LINE('',#277,#278);
#277 = CARTESIAN_POINT('',(-51.5,-56.,4.));
#278 = VECTOR('',#279,1.);
#279 = DIRECTION('',(1.,0.,0.));
#280 = ORIENTED_EDGE('',*,*,#39,.T.);
#281 = ORIENTED_EDGE('',*,*,#259,.T.);
#282 = ORIENTED_EDGE('',*,*,#283,.F.);
#283 = EDGE_CURVE('',#284,#252,#286,.T.);
#284 = VERTEX_POINT('',#285);
#285 = CARTESIAN_POINT('',(-19.,-56.,8.5));
#286 = LINE('',#287,#288);
#287 = CARTESIAN_POINT('',(-19.,-56.,9.5));
#288 = VECTOR('',#289,1.);
#289 = DIRECTION('',(0.,0.,1.));
#290 = ORIENTED_EDGE('',*,*,#291,.T.);
#291 = EDGE_CURVE('',#284,#292,#294,.T.);
#292 = VERTEX_POINT('',#293);
#293 = CARTESIAN_POINT('',(-18.,-56.,7.5));
#294 = CIRCLE('',#295,1.);
#295 = AXIS2_PLACEMENT_3D('',#296,#297,#298);
#296 = CARTESIAN_POINT('',(-18.,-56.,8.5));
#297 = DIRECTION('',(0.,-1.,2.22044604925E-16));
#298 = DIRECTION('',(0.,2.22044604925E-16,1.));
#299 = ORIENTED_EDGE('',*,*,#300,.T.);
#300 = EDGE_CURVE('',#292,#301,#303,.T.);
#301 = VERTEX_POINT('',#302);
#302 = CARTESIAN_POINT('',(-10.,-56.,7.5));
#303 = LINE('',#304,#305);
#304 = CARTESIAN_POINT('',(-30.25,-56.,7.5));
#305 = VECTOR('',#306,1.);
#306 = DIRECTION('',(1.,0.,0.));
#307 = ORIENTED_EDGE('',*,*,#308,.F.);
#308 = EDGE_CURVE('',#309,#301,#311,.T.);
#309 = VERTEX_POINT('',#310);
#310 = CARTESIAN_POINT('',(-9.,-56.,8.5));
#311 = CIRCLE('',#312,1.);
#312 = AXIS2_PLACEMENT_3D('',#313,#314,#315);
#313 = CARTESIAN_POINT('',(-10.,-56.,8.5));
#314 = DIRECTION('',(0.,1.,-2.22044604925E-16));
#315 = DIRECTION('',(0.,2.22044604925E-16,1.));
#316 = ORIENTED_EDGE('',*,*,#317,.T.);
#317 = EDGE_CURVE('',#309,#228,#318,.T.);
#318 = LINE('',#319,#320);
#319 = CARTESIAN_POINT('',(-9.,-56.,6.25));
#320 = VECTOR('',#321,1.);
#321 = DIRECTION('',(0.,0.,1.));
#322 = ORIENTED_EDGE('',*,*,#227,.T.);
#323 = ORIENTED_EDGE('',*,*,#324,.F.);
#324 = EDGE_CURVE('',#274,#220,#325,.T.);
#325 = LINE('',#326,#327);
#326 = CARTESIAN_POINT('',(51.5,-56.,0.));
#327 = VECTOR('',#328,1.);
#328 = DIRECTION('',(0.,0.,1.));
#329 = PLANE('',#330);
#330 = AXIS2_PLACEMENT_3D('',#331,#332,#333);
#331 = CARTESIAN_POINT('',(-51.5,-56.,0.));
#332 = DIRECTION('',(0.,1.,0.));
#333 = DIRECTION('',(1.,0.,0.));
#334 = ADVANCED_FACE('',(#335),#355,.F.);
#335 = FACE_BOUND('',#336,.T.);
#336 = EDGE_LOOP('',(#337,#346,#347,#348));
#337 = ORIENTED_EDGE('',*,*,#338,.F.);
#338 = EDGE_CURVE('',#56,#339,#341,.T.);
#339 = VERTEX_POINT('',#340);
#340 = CARTESIAN_POINT('',(-51.1,-39.370163,10.));
#341 = CIRCLE('',#342,0.4);
#342 = AXIS2_PLACEMENT_3D('',#343,#344,#345);
#343 = CARTESIAN_POINT('',(-51.1,-38.970163,10.));
#344 = DIRECTION('',(0.,-0.,1.));
#345 = DIRECTION('',(0.,1.,0.));
#346 = ORIENTED_EDGE('',*,*,#55,.F.);
#347 = ORIENTED_EDGE('',*,*,#338,.T.);
#348 = ORIENTED_EDGE('',*,*,#349,.T.);
#349 = EDGE_CURVE('',#339,#339,#350,.T.);
#350 = CIRCLE('',#351,0.629837);
#351 = AXIS2_PLACEMENT_3D('',#352,#353,#354);
#352 = CARTESIAN_POINT('',(-51.1,-40.,10.));
#353 = DIRECTION('',(1.,0.,0.));
#354 = DIRECTION('',(0.,1.,0.));
#355 = TOROIDAL_SURFACE('',#356,1.029837,0.4);
#356 = AXIS2_PLACEMENT_3D('',#357,#358,#359);
#357 = CARTESIAN_POINT('',(-51.1,-40.,10.));
#358 = DIRECTION('',(-1.,-0.,-0.));
#359 = DIRECTION('',(0.,1.,0.));
#360 = ADVANCED_FACE('',(#361),#381,.F.);
#361 = FACE_BOUND('',#362,.T.);
#362 = EDGE_LOOP('',(#363,#372,#373,#374));
#363 = ORIENTED_EDGE('',*,*,#364,.F.);
#364 = EDGE_CURVE('',#67,#365,#367,.T.);
#365 = VERTEX_POINT('',#366);
#366 = CARTESIAN_POINT('',(-51.1,40.629837,10.));
#367 = CIRCLE('',#368,0.4);
#368 = AXIS2_PLACEMENT_3D('',#369,#370,#371);
#369 = CARTESIAN_POINT('',(-51.1,41.029837,10.));
#370 = DIRECTION('',(0.,-0.,1.));
#371 = DIRECTION('',(0.,1.,0.));
#372 = ORIENTED_EDGE('',*,*,#66,.F.);
#373 = ORIENTED_EDGE('',*,*,#364,.T.);
#374 = ORIENTED_EDGE('',*,*,#375,.T.);
#375 = EDGE_CURVE('',#365,#365,#376,.T.);
#376 = CIRCLE('',#377,0.629837);
#377 = AXIS2_PLACEMENT_3D('',#378,#379,#380);
#378 = CARTESIAN_POINT('',(-51.1,40.,10.));
#379 = DIRECTION('',(1.,0.,0.));
#380 = DIRECTION('',(0.,1.,0.));
#381 = TOROIDAL_SURFACE('',#382,1.029837,0.4);
#382 = AXIS2_PLACEMENT_3D('',#383,#384,#385);
#383 = CARTESIAN_POINT('',(-51.1,40.,10.));
#384 = DIRECTION('',(-1.,-0.,-0.));
#385 = DIRECTION('',(0.,1.,0.));
#386 = ADVANCED_FACE('',(#387),#406,.F.);
#387 = FACE_BOUND('',#388,.F.);
#388 = EDGE_LOOP('',(#389,#398,#404,#405));
#389 = ORIENTED_EDGE('',*,*,#390,.T.);
#390 = EDGE_CURVE('',#85,#391,#393,.T.);
#391 = VERTEX_POINT('',#392);
#392 = CARTESIAN_POINT('',(49.5,54.,2.));
#393 = ELLIPSE('',#394,2.828427124746,2.);
#394 = AXIS2_PLACEMENT_3D('',#395,#396,#397);
#395 = CARTESIAN_POINT('',(49.5,54.,4.));
#396 = DIRECTION('',(-0.707106781187,0.707106781187,0.));
#397 = DIRECTION('',(-0.707106781187,-0.707106781187,0.));
#398 = ORIENTED_EDGE('',*,*,#399,.T.);
#399 = EDGE_CURVE('',#391,#115,#400,.T.);
#400 = LINE('',#401,#402);
#401 = CARTESIAN_POINT('',(51.5,54.,2.));
#402 = VECTOR('',#403,1.);
#403 = DIRECTION('',(-1.,0.,0.));
#404 = ORIENTED_EDGE('',*,*,#114,.F.);
#405 = ORIENTED_EDGE('',*,*,#84,.F.);
#406 = CYLINDRICAL_SURFACE('',#407,2.);
#407 = AXIS2_PLACEMENT_3D('',#408,#409,#410);
#408 = CARTESIAN_POINT('',(51.5,54.,4.));
#409 = DIRECTION('',(-1.,0.,0.));
#410 = DIRECTION('',(0.,1.,0.));
#411 = ADVANCED_FACE('',(#412,#423),#493,.T.);
#412 = FACE_BOUND('',#413,.T.);
#413 = EDGE_LOOP('',(#414,#415,#416,#417));
#414 = ORIENTED_EDGE('',*,*,#324,.T.);
#415 = ORIENTED_EDGE('',*,*,#219,.T.);
#416 = ORIENTED_EDGE('',*,*,#92,.F.);
#417 = ORIENTED_EDGE('',*,*,#418,.F.);
#418 = EDGE_CURVE('',#274,#85,#419,.T.);
#419 = LINE('',#420,#421);
#420 = CARTESIAN_POINT('',(51.5,-56.,4.));
#421 = VECTOR('',#422,1.);
#422 = DIRECTION('',(0.,1.,0.));
#423 = FACE_BOUND('',#424,.T.);
#424 = EDGE_LOOP('',(#425,#435,#444,#452,#461,#469,#478,#486));
#425 = ORIENTED_EDGE('',*,*,#426,.F.);
#426 = EDGE_CURVE('',#427,#429,#431,.T.);
#427 = VERTEX_POINT('',#428);
#428 = CARTESIAN_POINT('',(51.5,-25.35,9.85));
#429 = VERTEX_POINT('',#430);
#430 = CARTESIAN_POINT('',(51.5,-25.35,10.15));
#431 = LINE('',#432,#433);
#432 = CARTESIAN_POINT('',(51.5,-25.35,9.5));
#433 = VECTOR('',#434,1.);
#434 = DIRECTION('',(0.,0.,1.));
#435 = ORIENTED_EDGE('',*,*,#436,.T.);
#436 = EDGE_CURVE('',#427,#437,#439,.T.);
#437 = VERTEX_POINT('',#438);
#438 = CARTESIAN_POINT('',(51.5,-24.65,9.15));
#439 = CIRCLE('',#440,0.7);
#440 = AXIS2_PLACEMENT_3D('',#441,#442,#443);
#441 = CARTESIAN_POINT('',(51.5,-24.65,9.85));
#442 = DIRECTION('',(1.,0.,-0.));
#443 = DIRECTION('',(0.,-1.,0.));
#444 = ORIENTED_EDGE('',*,*,#445,.F.);
#445 = EDGE_CURVE('',#446,#437,#448,.T.);
#446 = VERTEX_POINT('',#447);
#447 = CARTESIAN_POINT('',(51.5,24.65,9.15));
#448 = LINE('',#449,#450);
#449 = CARTESIAN_POINT('',(51.5,25.,9.15));
#450 = VECTOR('',#451,1.);
#451 = DIRECTION('',(0.,-1.,0.));
#452 = ORIENTED_EDGE('',*,*,#453,.F.);
#453 = EDGE_CURVE('',#454,#446,#456,.T.);
#454 = VERTEX_POINT('',#455);
#455 = CARTESIAN_POINT('',(51.5,25.35,9.85));
#456 = CIRCLE('',#457,0.7);
#457 = AXIS2_PLACEMENT_3D('',#458,#459,#460);
#458 = CARTESIAN_POINT('',(51.5,24.65,9.85));
#459 = DIRECTION('',(-1.,0.,0.));
#460 = DIRECTION('',(0.,1.,0.));
#461 = ORIENTED_EDGE('',*,*,#462,.F.);
#462 = EDGE_CURVE('',#463,#454,#465,.T.);
#463 = VERTEX_POINT('',#464);
#464 = CARTESIAN_POINT('',(51.5,25.35,10.15));
#465 = LINE('',#466,#467);
#466 = CARTESIAN_POINT('',(51.5,25.35,10.5));
#467 = VECTOR('',#468,1.);
#468 = DIRECTION('',(0.,0.,-1.));
#469 = ORIENTED_EDGE('',*,*,#470,.F.);
#470 = EDGE_CURVE('',#471,#463,#473,.T.);
#471 = VERTEX_POINT('',#472);
#472 = CARTESIAN_POINT('',(51.5,24.65,10.85));
#473 = CIRCLE('',#474,0.7);
#474 = AXIS2_PLACEMENT_3D('',#475,#476,#477);
#475 = CARTESIAN_POINT('',(51.5,24.65,10.15));
#476 = DIRECTION('',(-1.,0.,0.));
#477 = DIRECTION('',(0.,-2.030122102172E-14,1.));
#478 = ORIENTED_EDGE('',*,*,#479,.F.);
#479 = EDGE_CURVE('',#480,#471,#482,.T.);
#480 = VERTEX_POINT('',#481);
#481 = CARTESIAN_POINT('',(51.5,-24.65,10.85));
#482 = LINE('',#483,#484);
#483 = CARTESIAN_POINT('',(51.5,-25.,10.85));
#484 = VECTOR('',#485,1.);
#485 = DIRECTION('',(0.,1.,0.));
#486 = ORIENTED_EDGE('',*,*,#487,.F.);
#487 = EDGE_CURVE('',#429,#480,#488,.T.);
#488 = CIRCLE('',#489,0.7);
#489 = AXIS2_PLACEMENT_3D('',#490,#491,#492);
#490 = CARTESIAN_POINT('',(51.5,-24.65,10.15));
#491 = DIRECTION('',(-1.,0.,0.));
#492 = DIRECTION('',(0.,-1.,0.));
#493 = PLANE('',#494);
#494 = AXIS2_PLACEMENT_3D('',#495,#496,#497);
#495 = CARTESIAN_POINT('',(51.5,-56.,0.));
#496 = DIRECTION('',(-1.,0.,0.));
#497 = DIRECTION('',(0.,1.,0.));
#498 = ADVANCED_FACE('',(#499),#517,.T.);
#499 = FACE_BOUND('',#500,.T.);
#500 = EDGE_LOOP('',(#501,#502,#503,#511));
#501 = ORIENTED_EDGE('',*,*,#399,.T.);
#502 = ORIENTED_EDGE('',*,*,#123,.T.);
#503 = ORIENTED_EDGE('',*,*,#504,.T.);
#504 = EDGE_CURVE('',#124,#505,#507,.T.);
#505 = VERTEX_POINT('',#506);
#506 = CARTESIAN_POINT('',(49.5,-54.,2.));
#507 = LINE('',#508,#509);
#508 = CARTESIAN_POINT('',(-51.5,-54.,2.));
#509 = VECTOR('',#510,1.);
#510 = DIRECTION('',(1.,0.,0.));
#511 = ORIENTED_EDGE('',*,*,#512,.T.);
#512 = EDGE_CURVE('',#505,#391,#513,.T.);
#513 = LINE('',#514,#515);
#514 = CARTESIAN_POINT('',(49.5,-56.,2.));
#515 = VECTOR('',#516,1.);
#516 = DIRECTION('',(0.,1.,0.));
#517 = PLANE('',#518);
#518 = AXIS2_PLACEMENT_3D('',#519,#520,#521);
#519 = CARTESIAN_POINT('',(0.,0.,2.));
#520 = DIRECTION('',(0.,0.,1.));
#521 = DIRECTION('',(1.,0.,0.));
#522 = ADVANCED_FACE('',(#523),#535,.F.);
#523 = FACE_BOUND('',#524,.F.);
#524 = EDGE_LOOP('',(#525,#526,#527,#534));
#525 = ORIENTED_EDGE('',*,*,#131,.T.);
#526 = ORIENTED_EDGE('',*,*,#504,.T.);
#527 = ORIENTED_EDGE('',*,*,#528,.F.);
#528 = EDGE_CURVE('',#274,#505,#529,.T.);
#529 = ELLIPSE('',#530,2.828427124746,2.);
#530 = AXIS2_PLACEMENT_3D('',#531,#532,#533);
#531 = CARTESIAN_POINT('',(49.5,-54.,4.));
#532 = DIRECTION('',(0.707106781187,0.707106781187,-0.));
#533 = DIRECTION('',(-0.707106781187,0.707106781187,0.));
#534 = ORIENTED_EDGE('',*,*,#273,.F.);
#535 = CYLINDRICAL_SURFACE('',#536,2.);
#536 = AXIS2_PLACEMENT_3D('',#537,#538,#539);
#537 = CARTESIAN_POINT('',(-51.5,-54.,4.));
#538 = DIRECTION('',(1.,0.,0.));
#539 = DIRECTION('',(0.,-1.,0.));
#540 = ADVANCED_FACE('',(#541),#566,.F.);
#541 = FACE_BOUND('',#542,.F.);
#542 = EDGE_LOOP('',(#543,#551,#552,#560));
#543 = ORIENTED_EDGE('',*,*,#544,.T.);
#544 = EDGE_CURVE('',#545,#148,#547,.T.);
#545 = VERTEX_POINT('',#546);
#546 = CARTESIAN_POINT('',(-53.5,56.,2.));
#547 = LINE('',#548,#549);
#548 = CARTESIAN_POINT('',(-53.5,56.,0.));
#549 = VECTOR('',#550,1.);
#550 = DIRECTION('',(0.,0.,1.));
#551 = ORIENTED_EDGE('',*,*,#147,.T.);
#552 = ORIENTED_EDGE('',*,*,#553,.F.);
#553 = EDGE_CURVE('',#554,#150,#556,.T.);
#554 = VERTEX_POINT('',#555);
#555 = CARTESIAN_POINT('',(-53.5,-56.,2.));
#556 = LINE('',#557,#558);
#557 = CARTESIAN_POINT('',(-53.5,-56.,0.));
#558 = VECTOR('',#559,1.);
#559 = DIRECTION('',(0.,0.,1.));
#560 = ORIENTED_EDGE('',*,*,#561,.F.);
#561 = EDGE_CURVE('',#545,#554,#562,.T.);
#562 = LINE('',#563,#564);
#563 = CARTESIAN_POINT('',(-53.5,56.,2.));
#564 = VECTOR('',#565,1.);
#565 = DIRECTION('',(0.,-1.,0.));
#566 = PLANE('',#567);
#567 = AXIS2_PLACEMENT_3D('',#568,#569,#570);
#568 = CARTESIAN_POINT('',(-53.5,58.,0.));
#569 = DIRECTION('',(1.,0.,0.));
#570 = DIRECTION('',(0.,-1.,0.));
#571 = ADVANCED_FACE('',(#572),#591,.T.);
#572 = FACE_BOUND('',#573,.F.);
#573 = EDGE_LOOP('',(#574,#575,#584,#590));
#574 = ORIENTED_EDGE('',*,*,#544,.F.);
#575 = ORIENTED_EDGE('',*,*,#576,.F.);
#576 = EDGE_CURVE('',#577,#545,#579,.T.);
#577 = VERTEX_POINT('',#578);
#578 = CARTESIAN_POINT('',(-51.5,58.,2.));
#579 = CIRCLE('',#580,2.);
#580 = AXIS2_PLACEMENT_3D('',#581,#582,#583);
#581 = CARTESIAN_POINT('',(-51.5,56.,2.));
#582 = DIRECTION('',(0.,-0.,1.));
#583 = DIRECTION('',(0.,1.,0.));
#584 = ORIENTED_EDGE('',*,*,#585,.T.);
#585 = EDGE_CURVE('',#577,#201,#586,.T.);
#586 = LINE('',#587,#588);
#587 = CARTESIAN_POINT('',(-51.5,58.,0.));
#588 = VECTOR('',#589,1.);
#589 = DIRECTION('',(0.,0.,1.));
#590 = ORIENTED_EDGE('',*,*,#208,.F.);
#591 = CYLINDRICAL_SURFACE('',#592,2.);
#592 = AXIS2_PLACEMENT_3D('',#593,#594,#595);
#593 = CARTESIAN_POINT('',(-51.5,56.,0.));
#594 = DIRECTION('',(0.,0.,1.));
#595 = DIRECTION('',(-1.,0.,0.));
#596 = ADVANCED_FACE('',(#597),#616,.T.);
#597 = FACE_BOUND('',#598,.T.);
#598 = EDGE_LOOP('',(#599,#600,#609,#615));
#599 = ORIENTED_EDGE('',*,*,#553,.F.);
#600 = ORIENTED_EDGE('',*,*,#601,.T.);
#601 = EDGE_CURVE('',#554,#602,#604,.T.);
#602 = VERTEX_POINT('',#603);
#603 = CARTESIAN_POINT('',(-51.5,-58.,2.));
#604 = CIRCLE('',#605,2.);
#605 = AXIS2_PLACEMENT_3D('',#606,#607,#608);
#606 = CARTESIAN_POINT('',(-51.5,-56.,2.));
#607 = DIRECTION('',(0.,-0.,1.));
#608 = DIRECTION('',(-1.,0.,0.));
#609 = ORIENTED_EDGE('',*,*,#610,.T.);
#610 = EDGE_CURVE('',#602,#158,#611,.T.);
#611 = LINE('',#612,#613);
#612 = CARTESIAN_POINT('',(-51.5,-58.,0.));
#613 = VECTOR('',#614,1.);
#614 = DIRECTION('',(0.,0.,1.));
#615 = ORIENTED_EDGE('',*,*,#157,.F.);
#616 = CYLINDRICAL_SURFACE('',#617,2.);
#617 = AXIS2_PLACEMENT_3D('',#618,#619,#620);
#618 = CARTESIAN_POINT('',(-51.5,-56.,0.));
#619 = DIRECTION('',(0.,0.,1.));
#620 = DIRECTION('',(-1.,0.,0.));
#621 = ADVANCED_FACE('',(#622),#640,.F.);
#622 = FACE_BOUND('',#623,.F.);
#623 = EDGE_LOOP('',(#624,#632,#633,#634));
#624 = ORIENTED_EDGE('',*,*,#625,.T.);
#625 = EDGE_CURVE('',#626,#192,#628,.T.);
#626 = VERTEX_POINT('',#627);
#627 = CARTESIAN_POINT('',(51.5,58.,2.));
#628 = LINE('',#629,#630);
#629 = CARTESIAN_POINT('',(51.5,58.,0.));
#630 = VECTOR('',#631,1.);
#631 = DIRECTION('',(0.,0.,1.));
#632 = ORIENTED_EDGE('',*,*,#200,.T.);
#633 = ORIENTED_EDGE('',*,*,#585,.F.);
#634 = ORIENTED_EDGE('',*,*,#635,.F.);
#635 = EDGE_CURVE('',#626,#577,#636,.T.);
#636 = LINE('',#637,#638);
#637 = CARTESIAN_POINT('',(51.5,58.,2.));
#638 = VECTOR('',#639,1.);
#639 = DIRECTION('',(-1.,0.,0.));
#640 = PLANE('',#641);
#641 = AXIS2_PLACEMENT_3D('',#642,#643,#644);
#642 = CARTESIAN_POINT('',(53.5,58.,0.));
#643 = DIRECTION('',(0.,-1.,0.));
#644 = DIRECTION('',(-1.,0.,0.));
#645 = ADVANCED_FACE('',(#646,#664),#734,.F.);
#646 = FACE_BOUND('',#647,.F.);
#647 = EDGE_LOOP('',(#648,#649,#650,#658));
#648 = ORIENTED_EDGE('',*,*,#610,.T.);
#649 = ORIENTED_EDGE('',*,*,#166,.T.);
#650 = ORIENTED_EDGE('',*,*,#651,.F.);
#651 = EDGE_CURVE('',#652,#167,#654,.T.);
#652 = VERTEX_POINT('',#653);
#653 = CARTESIAN_POINT('',(51.5,-58.,2.));
#654 = LINE('',#655,#656);
#655 = CARTESIAN_POINT('',(51.5,-58.,0.));
#656 = VECTOR('',#657,1.);
#657 = DIRECTION('',(0.,0.,1.));
#658 = ORIENTED_EDGE('',*,*,#659,.F.);
#659 = EDGE_CURVE('',#602,#652,#660,.T.);
#660 = LINE('',#661,#662);
#661 = CARTESIAN_POINT('',(-51.5,-58.,2.));
#662 = VECTOR('',#663,1.);
#663 = DIRECTION('',(1.,0.,0.));
#664 = FACE_BOUND('',#665,.F.);
#665 = EDGE_LOOP('',(#666,#676,#685,#693,#702,#710,#719,#727));
#666 = ORIENTED_EDGE('',*,*,#667,.F.);
#667 = EDGE_CURVE('',#668,#670,#672,.T.);
#668 = VERTEX_POINT('',#669);
#669 = CARTESIAN_POINT('',(-19.,-58.,8.5));
#670 = VERTEX_POINT('',#671);
#671 = CARTESIAN_POINT('',(-19.,-58.,11.5));
#672 = LINE('',#673,#674);
#673 = CARTESIAN_POINT('',(-19.,-58.,7.5));
#674 = VECTOR('',#675,1.);
#675 = DIRECTION('',(0.,2.22044604925E-16,1.));
#676 = ORIENTED_EDGE('',*,*,#677,.T.);
#677 = EDGE_CURVE('',#668,#678,#680,.T.);
#678 = VERTEX_POINT('',#679);
#679 = CARTESIAN_POINT('',(-18.,-58.,7.5));
#680 = CIRCLE('',#681,1.);
#681 = AXIS2_PLACEMENT_3D('',#682,#683,#684);
#682 = CARTESIAN_POINT('',(-18.,-58.,8.5));
#683 = DIRECTION('',(0.,-1.,2.22044604925E-16));
#684 = DIRECTION('',(0.,2.22044604925E-16,1.));
#685 = ORIENTED_EDGE('',*,*,#686,.F.);
#686 = EDGE_CURVE('',#687,#678,#689,.T.);
#687 = VERTEX_POINT('',#688);
#688 = CARTESIAN_POINT('',(-10.,-58.,7.5));
#689 = LINE('',#690,#691);
#690 = CARTESIAN_POINT('',(-9.,-58.,7.5));
#691 = VECTOR('',#692,1.);
#692 = DIRECTION('',(-1.,0.,0.));
#693 = ORIENTED_EDGE('',*,*,#694,.F.);
#694 = EDGE_CURVE('',#695,#687,#697,.T.);
#695 = VERTEX_POINT('',#696);
#696 = CARTESIAN_POINT('',(-9.,-58.,8.5));
#697 = CIRCLE('',#698,1.);
#698 = AXIS2_PLACEMENT_3D('',#699,#700,#701);
#699 = CARTESIAN_POINT('',(-10.,-58.,8.5));
#700 = DIRECTION('',(0.,1.,-2.22044604925E-16));
#701 = DIRECTION('',(0.,2.22044604925E-16,1.));
#702 = ORIENTED_EDGE('',*,*,#703,.F.);
#703 = EDGE_CURVE('',#704,#695,#706,.T.);
#704 = VERTEX_POINT('',#705);
#705 = CARTESIAN_POINT('',(-9.,-58.,11.5));
#706 = LINE('',#707,#708);
#707 = CARTESIAN_POINT('',(-9.,-58.,12.5));
#708 = VECTOR('',#709,1.);
#709 = DIRECTION('',(0.,-2.22044604925E-16,-1.));
#710 = ORIENTED_EDGE('',*,*,#711,.F.);
#711 = EDGE_CURVE('',#712,#704,#714,.T.);
#712 = VERTEX_POINT('',#713);
#713 = CARTESIAN_POINT('',(-10.,-58.,12.5));
#714 = CIRCLE('',#715,1.);
#715 = AXIS2_PLACEMENT_3D('',#716,#717,#718);
#716 = CARTESIAN_POINT('',(-10.,-58.,11.5));
#717 = DIRECTION('',(0.,1.,-2.22044604925E-16));
#718 = DIRECTION('',(0.,2.22044604925E-16,1.));
#719 = ORIENTED_EDGE('',*,*,#720,.F.);
#720 = EDGE_CURVE('',#721,#712,#723,.T.);
#721 = VERTEX_POINT('',#722);
#722 = CARTESIAN_POINT('',(-18.,-58.,12.5));
#723 = LINE('',#724,#725);
#724 = CARTESIAN_POINT('',(-19.,-58.,12.5));
#725 = VECTOR('',#726,1.);
#726 = DIRECTION('',(1.,0.,0.));
#727 = ORIENTED_EDGE('',*,*,#728,.F.);
#728 = EDGE_CURVE('',#670,#721,#729,.T.);
#729 = CIRCLE('',#730,1.);
#730 = AXIS2_PLACEMENT_3D('',#731,#732,#733);
#731 = CARTESIAN_POINT('',(-18.,-58.,11.5));
#732 = DIRECTION('',(0.,1.,-2.22044604925E-16));
#733 = DIRECTION('',(0.,2.22044604925E-16,1.));
#734 = PLANE('',#735);
#735 = AXIS2_PLACEMENT_3D('',#736,#737,#738);
#736 = CARTESIAN_POINT('',(-53.5,-58.,0.));
#737 = DIRECTION('',(0.,1.,0.));
#738 = DIRECTION('',(1.,0.,0.));
#739 = ADVANCED_FACE('',(#740),#759,.T.);
#740 = FACE_BOUND('',#741,.F.);
#741 = EDGE_LOOP('',(#742,#743,#752,#758));
#742 = ORIENTED_EDGE('',*,*,#625,.F.);
#743 = ORIENTED_EDGE('',*,*,#744,.F.);
#744 = EDGE_CURVE('',#745,#626,#747,.T.);
#745 = VERTEX_POINT('',#746);
#746 = CARTESIAN_POINT('',(53.5,56.,2.));
#747 = CIRCLE('',#748,2.);
#748 = AXIS2_PLACEMENT_3D('',#749,#750,#751);
#749 = CARTESIAN_POINT('',(51.5,56.,2.));
#750 = DIRECTION('',(0.,0.,1.));
#751 = DIRECTION('',(1.,0.,0.));
#752 = ORIENTED_EDGE('',*,*,#753,.T.);
#753 = EDGE_CURVE('',#745,#184,#754,.T.);
#754 = LINE('',#755,#756);
#755 = CARTESIAN_POINT('',(53.5,56.,0.));
#756 = VECTOR('',#757,1.);
#757 = DIRECTION('',(0.,0.,1.));
#758 = ORIENTED_EDGE('',*,*,#191,.F.);
#759 = CYLINDRICAL_SURFACE('',#760,2.);
#760 = AXIS2_PLACEMENT_3D('',#761,#762,#763);
#761 = CARTESIAN_POINT('',(51.5,56.,0.));
#762 = DIRECTION('',(0.,0.,1.));
#763 = DIRECTION('',(0.,1.,0.));
#764 = ADVANCED_FACE('',(#765),#784,.T.);
#765 = FACE_BOUND('',#766,.T.);
#766 = EDGE_LOOP('',(#767,#768,#777,#783));
#767 = ORIENTED_EDGE('',*,*,#651,.F.);
#768 = ORIENTED_EDGE('',*,*,#769,.T.);
#769 = EDGE_CURVE('',#652,#770,#772,.T.);
#770 = VERTEX_POINT('',#771);
#771 = CARTESIAN_POINT('',(53.5,-56.,2.));
#772 = CIRCLE('',#773,2.);
#773 = AXIS2_PLACEMENT_3D('',#774,#775,#776);
#774 = CARTESIAN_POINT('',(51.5,-56.,2.));
#775 = DIRECTION('',(-0.,0.,1.));
#776 = DIRECTION('',(0.,-1.,0.));
#777 = ORIENTED_EDGE('',*,*,#778,.T.);
#778 = EDGE_CURVE('',#770,#175,#779,.T.);
#779 = LINE('',#780,#781);
#780 = CARTESIAN_POINT('',(53.5,-56.,0.));
#781 = VECTOR('',#782,1.);
#782 = DIRECTION('',(0.,0.,1.));
#783 = ORIENTED_EDGE('',*,*,#174,.F.);
#784 = CYLINDRICAL_SURFACE('',#785,2.);
#785 = AXIS2_PLACEMENT_3D('',#786,#787,#788);
#786 = CARTESIAN_POINT('',(51.5,-56.,0.));
#787 = DIRECTION('',(0.,0.,1.));
#788 = DIRECTION('',(0.,-1.,0.));
#789 = ADVANCED_FACE('',(#790),#801,.F.);
#790 = FACE_BOUND('',#791,.F.);
#791 = EDGE_LOOP('',(#792,#793,#794,#795));
#792 = ORIENTED_EDGE('',*,*,#778,.T.);
#793 = ORIENTED_EDGE('',*,*,#183,.T.);
#794 = ORIENTED_EDGE('',*,*,#753,.F.);
#795 = ORIENTED_EDGE('',*,*,#796,.F.);
#796 = EDGE_CURVE('',#770,#745,#797,.T.);
#797 = LINE('',#798,#799);
#798 = CARTESIAN_POINT('',(53.5,-56.,2.));
#799 = VECTOR('',#800,1.);
#800 = DIRECTION('',(0.,1.,0.));
#801 = PLANE('',#802);
#802 = AXIS2_PLACEMENT_3D('',#803,#804,#805);
#803 = CARTESIAN_POINT('',(53.5,-58.,0.));
#804 = DIRECTION('',(-1.,0.,0.));
#805 = DIRECTION('',(0.,1.,0.));
#806 = ADVANCED_FACE('',(#807),#850,.F.);
#807 = FACE_BOUND('',#808,.F.);
#808 = EDGE_LOOP('',(#809,#810,#818,#827,#835,#844));
#809 = ORIENTED_EDGE('',*,*,#243,.F.);
#810 = ORIENTED_EDGE('',*,*,#811,.T.);
#811 = EDGE_CURVE('',#244,#812,#814,.T.);
#812 = VERTEX_POINT('',#813);
#813 = CARTESIAN_POINT('',(-19.,-57.,11.5));
#814 = LINE('',#815,#816);
#815 = CARTESIAN_POINT('',(-19.,-57.,19.));
#816 = VECTOR('',#817,1.);
#817 = DIRECTION('',(-0.,-0.,-1.));
#818 = ORIENTED_EDGE('',*,*,#819,.T.);
#819 = EDGE_CURVE('',#812,#820,#822,.T.);
#820 = VERTEX_POINT('',#821);
#821 = CARTESIAN_POINT('',(-18.,-57.,12.5));
#822 = CIRCLE('',#823,1.);
#823 = AXIS2_PLACEMENT_3D('',#824,#825,#826);
#824 = CARTESIAN_POINT('',(-18.,-57.,11.5));
#825 = DIRECTION('',(0.,1.,-2.22044604925E-16));
#826 = DIRECTION('',(-1.,0.,0.));
#827 = ORIENTED_EDGE('',*,*,#828,.F.);
#828 = EDGE_CURVE('',#829,#820,#831,.T.);
#829 = VERTEX_POINT('',#830);
#830 = CARTESIAN_POINT('',(-10.,-57.,12.5));
#831 = LINE('',#832,#833);
#832 = CARTESIAN_POINT('',(-19.,-57.,12.5));
#833 = VECTOR('',#834,1.);
#834 = DIRECTION('',(-1.,0.,0.));
#835 = ORIENTED_EDGE('',*,*,#836,.T.);
#836 = EDGE_CURVE('',#829,#837,#839,.T.);
#837 = VERTEX_POINT('',#838);
#838 = CARTESIAN_POINT('',(-9.,-57.,11.5));
#839 = CIRCLE('',#840,1.);
#840 = AXIS2_PLACEMENT_3D('',#841,#842,#843);
#841 = CARTESIAN_POINT('',(-10.,-57.,11.5));
#842 = DIRECTION('',(0.,1.,-2.22044604925E-16));
#843 = DIRECTION('',(0.,2.22044604925E-16,1.));
#844 = ORIENTED_EDGE('',*,*,#845,.F.);
#845 = EDGE_CURVE('',#236,#837,#846,.T.);
#846 = LINE('',#847,#848);
#847 = CARTESIAN_POINT('',(-9.,-57.,19.));
#848 = VECTOR('',#849,1.);
#849 = DIRECTION('',(-0.,-0.,-1.));
#850 = PLANE('',#851);
#851 = AXIS2_PLACEMENT_3D('',#852,#853,#854);
#852 = CARTESIAN_POINT('',(-19.,-57.,19.));
#853 = DIRECTION('',(0.,-1.,0.));
#854 = DIRECTION('',(1.,0.,0.));
#855 = ADVANCED_FACE('',(#856),#872,.F.);
#856 = FACE_BOUND('',#857,.F.);
#857 = EDGE_LOOP('',(#858,#859,#865,#866));
#858 = ORIENTED_EDGE('',*,*,#694,.T.);
#859 = ORIENTED_EDGE('',*,*,#860,.T.);
#860 = EDGE_CURVE('',#687,#301,#861,.T.);
#861 = LINE('',#862,#863);
#862 = CARTESIAN_POINT('',(-10.,-58.,7.5));
#863 = VECTOR('',#864,1.);
#864 = DIRECTION('',(0.,1.,-2.22044604925E-16));
#865 = ORIENTED_EDGE('',*,*,#308,.F.);
#866 = ORIENTED_EDGE('',*,*,#867,.F.);
#867 = EDGE_CURVE('',#695,#309,#868,.T.);
#868 = LINE('',#869,#870);
#869 = CARTESIAN_POINT('',(-9.,-58.,8.5));
#870 = VECTOR('',#871,1.);
#871 = DIRECTION('',(0.,1.,-2.22044604925E-16));
#872 = CYLINDRICAL_SURFACE('',#873,1.);
#873 = AXIS2_PLACEMENT_3D('',#874,#875,#876);
#874 = CARTESIAN_POINT('',(-10.,-58.,8.5));
#875 = DIRECTION('',(0.,1.,-2.22044604925E-16));
#876 = DIRECTION('',(1.,0.,0.));
#877 = ADVANCED_FACE('',(#878),#889,.T.);
#878 = FACE_BOUND('',#879,.T.);
#879 = EDGE_LOOP('',(#880,#881,#882,#883));
#880 = ORIENTED_EDGE('',*,*,#686,.F.);
#881 = ORIENTED_EDGE('',*,*,#860,.T.);
#882 = ORIENTED_EDGE('',*,*,#300,.F.);
#883 = ORIENTED_EDGE('',*,*,#884,.F.);
#884 = EDGE_CURVE('',#678,#292,#885,.T.);
#885 = LINE('',#886,#887);
#886 = CARTESIAN_POINT('',(-18.,-58.,7.5));
#887 = VECTOR('',#888,1.);
#888 = DIRECTION('',(0.,1.,-2.22044604925E-16));
#889 = PLANE('',#890);
#890 = AXIS2_PLACEMENT_3D('',#891,#892,#893);
#891 = CARTESIAN_POINT('',(-9.,-58.,7.5));
#892 = DIRECTION('',(0.,2.22044604925E-16,1.));
#893 = DIRECTION('',(-1.,0.,0.));
#894 = ADVANCED_FACE('',(#895),#906,.F.);
#895 = FACE_BOUND('',#896,.T.);
#896 = EDGE_LOOP('',(#897,#898,#899,#900));
#897 = ORIENTED_EDGE('',*,*,#677,.T.);
#898 = ORIENTED_EDGE('',*,*,#884,.T.);
#899 = ORIENTED_EDGE('',*,*,#291,.F.);
#900 = ORIENTED_EDGE('',*,*,#901,.F.);
#901 = EDGE_CURVE('',#668,#284,#902,.T.);
#902 = LINE('',#903,#904);
#903 = CARTESIAN_POINT('',(-19.,-58.,8.5));
#904 = VECTOR('',#905,1.);
#905 = DIRECTION('',(0.,1.,-2.22044604925E-16));
#906 = CYLINDRICAL_SURFACE('',#907,1.);
#907 = AXIS2_PLACEMENT_3D('',#908,#909,#910);
#908 = CARTESIAN_POINT('',(-18.,-58.,8.5));
#909 = DIRECTION('',(0.,1.,-2.22044604925E-16));
#910 = DIRECTION('',(-1.,0.,0.));
#911 = ADVANCED_FACE('',(#912),#931,.T.);
#912 = FACE_BOUND('',#913,.F.);
#913 = EDGE_LOOP('',(#914,#922,#929,#930));
#914 = ORIENTED_EDGE('',*,*,#915,.T.);
#915 = EDGE_CURVE('',#339,#916,#918,.T.);
#916 = VERTEX_POINT('',#917);
#917 = CARTESIAN_POINT('',(-50.9,-39.370163,10.));
#918 = LINE('',#919,#920);
#919 = CARTESIAN_POINT('',(-51.5,-39.370163,10.));
#920 = VECTOR('',#921,1.);
#921 = DIRECTION('',(1.,0.,0.));
#922 = ORIENTED_EDGE('',*,*,#923,.T.);
#923 = EDGE_CURVE('',#916,#916,#924,.T.);
#924 = CIRCLE('',#925,0.629837);
#925 = AXIS2_PLACEMENT_3D('',#926,#927,#928);
#926 = CARTESIAN_POINT('',(-50.9,-40.,10.));
#927 = DIRECTION('',(1.,0.,0.));
#928 = DIRECTION('',(0.,1.,0.));
#929 = ORIENTED_EDGE('',*,*,#915,.F.);
#930 = ORIENTED_EDGE('',*,*,#349,.F.);
#931 = CYLINDRICAL_SURFACE('',#932,0.629837);
#932 = AXIS2_PLACEMENT_3D('',#933,#934,#935);
#933 = CARTESIAN_POINT('',(-51.5,-40.,10.));
#934 = DIRECTION('',(-1.,-0.,-0.));
#935 = DIRECTION('',(0.,1.,0.));
#936 = ADVANCED_FACE('',(#937),#956,.T.);
#937 = FACE_BOUND('',#938,.F.);
#938 = EDGE_LOOP('',(#939,#947,#954,#955));
#939 = ORIENTED_EDGE('',*,*,#940,.T.);
#940 = EDGE_CURVE('',#365,#941,#943,.T.);
#941 = VERTEX_POINT('',#942);
#942 = CARTESIAN_POINT('',(-50.9,40.629837,10.));
#943 = LINE('',#944,#945);
#944 = CARTESIAN_POINT('',(-51.5,40.629837,10.));
#945 = VECTOR('',#946,1.);
#946 = DIRECTION('',(1.,0.,0.));
#947 = ORIENTED_EDGE('',*,*,#948,.T.);
#948 = EDGE_CURVE('',#941,#941,#949,.T.);
#949 = CIRCLE('',#950,0.629837);
#950 = AXIS2_PLACEMENT_3D('',#951,#952,#953);
#951 = CARTESIAN_POINT('',(-50.9,40.,10.));
#952 = DIRECTION('',(1.,0.,0.));
#953 = DIRECTION('',(0.,1.,0.));
#954 = ORIENTED_EDGE('',*,*,#940,.F.);
#955 = ORIENTED_EDGE('',*,*,#375,.F.);
#956 = CYLINDRICAL_SURFACE('',#957,0.629837);
#957 = AXIS2_PLACEMENT_3D('',#958,#959,#960);
#958 = CARTESIAN_POINT('',(-51.5,40.,10.));
#959 = DIRECTION('',(-1.,-0.,-0.));
#960 = DIRECTION('',(0.,1.,0.));
#961 = ADVANCED_FACE('',(#962),#968,.F.);
#962 = FACE_BOUND('',#963,.F.);
#963 = EDGE_LOOP('',(#964,#965,#966,#967));
#964 = ORIENTED_EDGE('',*,*,#528,.T.);
#965 = ORIENTED_EDGE('',*,*,#512,.T.);
#966 = ORIENTED_EDGE('',*,*,#390,.F.);
#967 = ORIENTED_EDGE('',*,*,#418,.F.);
#968 = CYLINDRICAL_SURFACE('',#969,2.);
#969 = AXIS2_PLACEMENT_3D('',#970,#971,#972);
#970 = CARTESIAN_POINT('',(49.5,-56.,4.));
#971 = DIRECTION('',(0.,1.,0.));
#972 = DIRECTION('',(1.,0.,0.));
#973 = ADVANCED_FACE('',(#974),#1001,.F.);
#974 = FACE_BOUND('',#975,.F.);
#975 = EDGE_LOOP('',(#976,#985,#993,#1000));
#976 = ORIENTED_EDGE('',*,*,#977,.T.);
#977 = EDGE_CURVE('',#427,#978,#980,.T.);
#978 = VERTEX_POINT('',#979);
#979 = CARTESIAN_POINT('',(51.15,-25.,9.85));
#980 = CIRCLE('',#981,0.35);
#981 = AXIS2_PLACEMENT_3D('',#982,#983,#984);
#982 = CARTESIAN_POINT('',(51.15,-25.35,9.85));
#983 = DIRECTION('',(-0.,0.,1.));
#984 = DIRECTION('',(0.,-1.,0.));
#985 = ORIENTED_EDGE('',*,*,#986,.T.);
#986 = EDGE_CURVE('',#978,#987,#989,.T.);
#987 = VERTEX_POINT('',#988);
#988 = CARTESIAN_POINT('',(51.15,-25.,10.15));
#989 = LINE('',#990,#991);
#990 = CARTESIAN_POINT('',(51.15,-25.,9.5));
#991 = VECTOR('',#992,1.);
#992 = DIRECTION('',(0.,0.,1.));
#993 = ORIENTED_EDGE('',*,*,#994,.F.);
#994 = EDGE_CURVE('',#429,#987,#995,.T.);
#995 = CIRCLE('',#996,0.35);
#996 = AXIS2_PLACEMENT_3D('',#997,#998,#999);
#997 = CARTESIAN_POINT('',(51.15,-25.35,10.15));
#998 = DIRECTION('',(-0.,0.,1.));
#999 = DIRECTION('',(0.,-1.,0.));
#1000 = ORIENTED_EDGE('',*,*,#426,.F.);
#1001 = CYLINDRICAL_SURFACE('',#1002,0.35);
#1002 = AXIS2_PLACEMENT_3D('',#1003,#1004,#1005);
#1003 = CARTESIAN_POINT('',(51.15,-25.35,9.5));
#1004 = DIRECTION('',(0.,0.,1.));
#1005 = DIRECTION('',(1.,0.,0.));
#1006 = ADVANCED_FACE('',(#1007),#1027,.F.);
#1007 = FACE_BOUND('',#1008,.F.);
#1008 = EDGE_LOOP('',(#1009,#1010,#1011,#1020));
#1009 = ORIENTED_EDGE('',*,*,#977,.F.);
#1010 = ORIENTED_EDGE('',*,*,#436,.T.);
#1011 = ORIENTED_EDGE('',*,*,#1012,.T.);
#1012 = EDGE_CURVE('',#437,#1013,#1015,.T.);
#1013 = VERTEX_POINT('',#1014);
#1014 = CARTESIAN_POINT('',(51.15,-24.65,9.5));
#1015 = CIRCLE('',#1016,0.35);
#1016 = AXIS2_PLACEMENT_3D('',#1017,#1018,#1019);
#1017 = CARTESIAN_POINT('',(51.15,-24.65,9.15));
#1018 = DIRECTION('',(0.,-1.,6.123233995737E-17));
#1019 = DIRECTION('',(0.,-6.123233995737E-17,-1.));
#1020 = ORIENTED_EDGE('',*,*,#1021,.F.);
#1021 = EDGE_CURVE('',#978,#1013,#1022,.T.);
#1022 = CIRCLE('',#1023,0.35);
#1023 = AXIS2_PLACEMENT_3D('',#1024,#1025,#1026);
#1024 = CARTESIAN_POINT('',(51.15,-24.65,9.85));
#1025 = DIRECTION('',(1.,0.,-0.));
#1026 = DIRECTION('',(0.,-1.,0.));
#1027 = TOROIDAL_SURFACE('',#1028,0.7,0.35);
#1028 = AXIS2_PLACEMENT_3D('',#1029,#1030,#1031);
#1029 = CARTESIAN_POINT('',(51.15,-24.65,9.85));
#1030 = DIRECTION('',(1.,0.,0.));
#1031 = DIRECTION('',(0.,-1.,0.));
#1032 = ADVANCED_FACE('',(#1033),#1053,.F.);
#1033 = FACE_BOUND('',#1034,.T.);
#1034 = EDGE_LOOP('',(#1035,#1036,#1037,#1046));
#1035 = ORIENTED_EDGE('',*,*,#994,.F.);
#1036 = ORIENTED_EDGE('',*,*,#487,.T.);
#1037 = ORIENTED_EDGE('',*,*,#1038,.T.);
#1038 = EDGE_CURVE('',#480,#1039,#1041,.T.);
#1039 = VERTEX_POINT('',#1040);
#1040 = CARTESIAN_POINT('',(51.15,-24.65,10.5));
#1041 = CIRCLE('',#1042,0.35);
#1042 = AXIS2_PLACEMENT_3D('',#1043,#1044,#1045);
#1043 = CARTESIAN_POINT('',(51.15,-24.65,10.85));
#1044 = DIRECTION('',(-0.,1.,6.123233995737E-17));
#1045 = DIRECTION('',(0.,-6.123233995737E-17,1.));
#1046 = ORIENTED_EDGE('',*,*,#1047,.F.);
#1047 = EDGE_CURVE('',#987,#1039,#1048,.T.);
#1048 = CIRCLE('',#1049,0.35);
#1049 = AXIS2_PLACEMENT_3D('',#1050,#1051,#1052);
#1050 = CARTESIAN_POINT('',(51.15,-24.65,10.15));
#1051 = DIRECTION('',(-1.,0.,0.));
#1052 = DIRECTION('',(0.,-1.,0.));
#1053 = TOROIDAL_SURFACE('',#1054,0.7,0.35);
#1054 = AXIS2_PLACEMENT_3D('',#1055,#1056,#1057);
#1055 = CARTESIAN_POINT('',(51.15,-24.65,10.15));
#1056 = DIRECTION('',(1.,0.,0.));
#1057 = DIRECTION('',(0.,-1.,0.));
#1058 = ADVANCED_FACE('',(#1059),#1078,.F.);
#1059 = FACE_BOUND('',#1060,.F.);
#1060 = EDGE_LOOP('',(#1061,#1070,#1076,#1077));
#1061 = ORIENTED_EDGE('',*,*,#1062,.T.);
#1062 = EDGE_CURVE('',#446,#1063,#1065,.T.);
#1063 = VERTEX_POINT('',#1064);
#1064 = CARTESIAN_POINT('',(51.15,24.65,9.5));
#1065 = CIRCLE('',#1066,0.35);
#1066 = AXIS2_PLACEMENT_3D('',#1067,#1068,#1069);
#1067 = CARTESIAN_POINT('',(51.15,24.65,9.15));
#1068 = DIRECTION('',(0.,-1.,-6.123233995737E-17));
#1069 = DIRECTION('',(0.,6.123233995737E-17,-1.));
#1070 = ORIENTED_EDGE('',*,*,#1071,.T.);
#1071 = EDGE_CURVE('',#1063,#1013,#1072,.T.);
#1072 = LINE('',#1073,#1074);
#1073 = CARTESIAN_POINT('',(51.15,25.,9.5));
#1074 = VECTOR('',#1075,1.);
#1075 = DIRECTION('',(0.,-1.,0.));
#1076 = ORIENTED_EDGE('',*,*,#1012,.F.);
#1077 = ORIENTED_EDGE('',*,*,#445,.F.);
#1078 = CYLINDRICAL_SURFACE('',#1079,0.35);
#1079 = AXIS2_PLACEMENT_3D('',#1080,#1081,#1082);
#1080 = CARTESIAN_POINT('',(51.15,25.,9.15));
#1081 = DIRECTION('',(0.,-1.,0.));
#1082 = DIRECTION('',(1.,0.,0.));
#1083 = ADVANCED_FACE('',(#1084),#1103,.F.);
#1084 = FACE_BOUND('',#1085,.F.);
#1085 = EDGE_LOOP('',(#1086,#1087,#1095,#1102));
#1086 = ORIENTED_EDGE('',*,*,#1038,.T.);
#1087 = ORIENTED_EDGE('',*,*,#1088,.T.);
#1088 = EDGE_CURVE('',#1039,#1089,#1091,.T.);
#1089 = VERTEX_POINT('',#1090);
#1090 = CARTESIAN_POINT('',(51.15,24.65,10.5));
#1091 = LINE('',#1092,#1093);
#1092 = CARTESIAN_POINT('',(51.15,-25.,10.5));
#1093 = VECTOR('',#1094,1.);
#1094 = DIRECTION('',(0.,1.,0.));
#1095 = ORIENTED_EDGE('',*,*,#1096,.F.);
#1096 = EDGE_CURVE('',#471,#1089,#1097,.T.);
#1097 = CIRCLE('',#1098,0.35);
#1098 = AXIS2_PLACEMENT_3D('',#1099,#1100,#1101);
#1099 = CARTESIAN_POINT('',(51.15,24.65,10.85));
#1100 = DIRECTION('',(-0.,1.,2.030122102172E-14));
#1101 = DIRECTION('',(0.,-2.030122102172E-14,1.));
#1102 = ORIENTED_EDGE('',*,*,#479,.F.);
#1103 = CYLINDRICAL_SURFACE('',#1104,0.35);
#1104 = AXIS2_PLACEMENT_3D('',#1105,#1106,#1107);
#1105 = CARTESIAN_POINT('',(51.15,-25.,10.85));
#1106 = DIRECTION('',(0.,1.,0.));
#1107 = DIRECTION('',(1.,0.,0.));
#1108 = ADVANCED_FACE('',(#1109),#1129,.F.);
#1109 = FACE_BOUND('',#1110,.T.);
#1110 = EDGE_LOOP('',(#1111,#1120,#1121,#1122));
#1111 = ORIENTED_EDGE('',*,*,#1112,.F.);
#1112 = EDGE_CURVE('',#454,#1113,#1115,.T.);
#1113 = VERTEX_POINT('',#1114);
#1114 = CARTESIAN_POINT('',(51.15,25.,9.85));
#1115 = CIRCLE('',#1116,0.35);
#1116 = AXIS2_PLACEMENT_3D('',#1117,#1118,#1119);
#1117 = CARTESIAN_POINT('',(51.15,25.35,9.85));
#1118 = DIRECTION('',(0.,0.,-1.));
#1119 = DIRECTION('',(0.,1.,0.));
#1120 = ORIENTED_EDGE('',*,*,#453,.T.);
#1121 = ORIENTED_EDGE('',*,*,#1062,.T.);
#1122 = ORIENTED_EDGE('',*,*,#1123,.F.);
#1123 = EDGE_CURVE('',#1113,#1063,#1124,.T.);
#1124 = CIRCLE('',#1125,0.35);
#1125 = AXIS2_PLACEMENT_3D('',#1126,#1127,#1128);
#1126 = CARTESIAN_POINT('',(51.15,24.65,9.85));
#1127 = DIRECTION('',(-1.,0.,0.));
#1128 = DIRECTION('',(0.,1.,0.));
#1129 = TOROIDAL_SURFACE('',#1130,0.7,0.35);
#1130 = AXIS2_PLACEMENT_3D('',#1131,#1132,#1133);
#1131 = CARTESIAN_POINT('',(51.15,24.65,9.85));
#1132 = DIRECTION('',(1.,0.,0.));
#1133 = DIRECTION('',(0.,1.,0.));
#1134 = ADVANCED_FACE('',(#1135),#1155,.F.);
#1135 = FACE_BOUND('',#1136,.T.);
#1136 = EDGE_LOOP('',(#1137,#1138,#1139,#1148));
#1137 = ORIENTED_EDGE('',*,*,#1096,.F.);
#1138 = ORIENTED_EDGE('',*,*,#470,.T.);
#1139 = ORIENTED_EDGE('',*,*,#1140,.T.);
#1140 = EDGE_CURVE('',#463,#1141,#1143,.T.);
#1141 = VERTEX_POINT('',#1142);
#1142 = CARTESIAN_POINT('',(51.15,25.,10.15));
#1143 = CIRCLE('',#1144,0.35);
#1144 = AXIS2_PLACEMENT_3D('',#1145,#1146,#1147);
#1145 = CARTESIAN_POINT('',(51.15,25.35,10.15));
#1146 = DIRECTION('',(0.,4.056851240985E-14,-1.));
#1147 = DIRECTION('',(0.,1.,4.056851240985E-14));
#1148 = ORIENTED_EDGE('',*,*,#1149,.F.);
#1149 = EDGE_CURVE('',#1089,#1141,#1150,.T.);
#1150 = CIRCLE('',#1151,0.35);
#1151 = AXIS2_PLACEMENT_3D('',#1152,#1153,#1154);
#1152 = CARTESIAN_POINT('',(51.15,24.65,10.15));
#1153 = DIRECTION('',(-1.,0.,0.));
#1154 = DIRECTION('',(0.,-2.030122102172E-14,1.));
#1155 = TOROIDAL_SURFACE('',#1156,0.7,0.35);
#1156 = AXIS2_PLACEMENT_3D('',#1157,#1158,#1159);
#1157 = CARTESIAN_POINT('',(51.15,24.65,10.15));
#1158 = DIRECTION('',(1.,0.,0.));
#1159 = DIRECTION('',(0.,-2.030122102172E-14,1.));
#1160 = ADVANCED_FACE('',(#1161),#1172,.F.);
#1161 = FACE_BOUND('',#1162,.F.);
#1162 = EDGE_LOOP('',(#1163,#1164,#1170,#1171));
#1163 = ORIENTED_EDGE('',*,*,#1140,.T.);
#1164 = ORIENTED_EDGE('',*,*,#1165,.T.);
#1165 = EDGE_CURVE('',#1141,#1113,#1166,.T.);
#1166 = LINE('',#1167,#1168);
#1167 = CARTESIAN_POINT('',(51.15,25.,10.5));
#1168 = VECTOR('',#1169,1.);
#1169 = DIRECTION('',(0.,0.,-1.));
#1170 = ORIENTED_EDGE('',*,*,#1112,.F.);
#1171 = ORIENTED_EDGE('',*,*,#462,.F.);
#1172 = CYLINDRICAL_SURFACE('',#1173,0.35);
#1173 = AXIS2_PLACEMENT_3D('',#1174,#1175,#1176);
#1174 = CARTESIAN_POINT('',(51.15,25.35,10.5));
#1175 = DIRECTION('',(0.,0.,-1.));
#1176 = DIRECTION('',(1.,0.,0.));
#1177 = ADVANCED_FACE('',(#1178),#1205,.T.);
#1178 = FACE_BOUND('',#1179,.T.);
#1179 = EDGE_LOOP('',(#1180,#1189,#1197,#1204));
#1180 = ORIENTED_EDGE('',*,*,#1181,.T.);
#1181 = EDGE_CURVE('',#545,#1182,#1184,.T.);
#1182 = VERTEX_POINT('',#1183);
#1183 = CARTESIAN_POINT('',(-51.5,56.,-4.440892098501E-16));
#1184 = CIRCLE('',#1185,2.);
#1185 = AXIS2_PLACEMENT_3D('',#1186,#1187,#1188);
#1186 = CARTESIAN_POINT('',(-51.5,56.,2.));
#1187 = DIRECTION('',(-6.123233995737E-17,-1.,-0.));
#1188 = DIRECTION('',(-1.,6.123233995737E-17,0.));
#1189 = ORIENTED_EDGE('',*,*,#1190,.T.);
#1190 = EDGE_CURVE('',#1182,#1191,#1193,.T.);
#1191 = VERTEX_POINT('',#1192);
#1192 = CARTESIAN_POINT('',(-51.5,-56.,-4.440892098501E-16));
#1193 = LINE('',#1194,#1195);
#1194 = CARTESIAN_POINT('',(-51.5,56.,-4.440892098501E-16));
#1195 = VECTOR('',#1196,1.);
#1196 = DIRECTION('',(0.,-1.,0.));
#1197 = ORIENTED_EDGE('',*,*,#1198,.F.);
#1198 = EDGE_CURVE('',#554,#1191,#1199,.T.);
#1199 = CIRCLE('',#1200,2.);
#1200 = AXIS2_PLACEMENT_3D('',#1201,#1202,#1203);
#1201 = CARTESIAN_POINT('',(-51.5,-56.,2.));
#1202 = DIRECTION('',(0.,-1.,0.));
#1203 = DIRECTION('',(-1.,0.,0.));
#1204 = ORIENTED_EDGE('',*,*,#561,.F.);
#1205 = CYLINDRICAL_SURFACE('',#1206,2.);
#1206 = AXIS2_PLACEMENT_3D('',#1207,#1208,#1209);
#1207 = CARTESIAN_POINT('',(-51.5,56.,2.));
#1208 = DIRECTION('',(0.,-1.,0.));
#1209 = DIRECTION('',(-1.,0.,0.));
#1210 = ADVANCED_FACE('',(#1211),#1222,.T.);
#1211 = FACE_BOUND('',#1212,.F.);
#1212 = EDGE_LOOP('',(#1213,#1220,#1221));
#1213 = ORIENTED_EDGE('',*,*,#1214,.F.);
#1214 = EDGE_CURVE('',#577,#1182,#1215,.T.);
#1215 = CIRCLE('',#1216,2.);
#1216 = AXIS2_PLACEMENT_3D('',#1217,#1218,#1219);
#1217 = CARTESIAN_POINT('',(-51.5,56.,2.));
#1218 = DIRECTION('',(-1.,0.,0.));
#1219 = DIRECTION('',(0.,1.,0.));
#1220 = ORIENTED_EDGE('',*,*,#576,.T.);
#1221 = ORIENTED_EDGE('',*,*,#1181,.T.);
#1222 = SPHERICAL_SURFACE('',#1223,2.);
#1223 = AXIS2_PLACEMENT_3D('',#1224,#1225,#1226);
#1224 = CARTESIAN_POINT('',(-51.5,56.,2.));
#1225 = DIRECTION('',(0.,0.,-1.));
#1226 = DIRECTION('',(0.,1.,0.));
#1227 = ADVANCED_FACE('',(#1228),#1239,.T.);
#1228 = FACE_BOUND('',#1229,.F.);
#1229 = EDGE_LOOP('',(#1230,#1231,#1232));
#1230 = ORIENTED_EDGE('',*,*,#1198,.F.);
#1231 = ORIENTED_EDGE('',*,*,#601,.T.);
#1232 = ORIENTED_EDGE('',*,*,#1233,.T.);
#1233 = EDGE_CURVE('',#602,#1191,#1234,.T.);
#1234 = CIRCLE('',#1235,2.);
#1235 = AXIS2_PLACEMENT_3D('',#1236,#1237,#1238);
#1236 = CARTESIAN_POINT('',(-51.5,-56.,2.));
#1237 = DIRECTION('',(1.,0.,0.));
#1238 = DIRECTION('',(0.,-1.,0.));
#1239 = SPHERICAL_SURFACE('',#1240,2.);
#1240 = AXIS2_PLACEMENT_3D('',#1241,#1242,#1243);
#1241 = CARTESIAN_POINT('',(-51.5,-56.,2.));
#1242 = DIRECTION('',(0.,0.,-1.));
#1243 = DIRECTION('',(-1.,0.,0.));
#1244 = ADVANCED_FACE('',(#1245),#1264,.T.);
#1245 = FACE_BOUND('',#1246,.T.);
#1246 = EDGE_LOOP('',(#1247,#1256,#1262,#1263));
#1247 = ORIENTED_EDGE('',*,*,#1248,.T.);
#1248 = EDGE_CURVE('',#626,#1249,#1251,.T.);
#1249 = VERTEX_POINT('',#1250);
#1250 = CARTESIAN_POINT('',(51.5,56.,-4.440892098501E-16));
#1251 = CIRCLE('',#1252,2.);
#1252 = AXIS2_PLACEMENT_3D('',#1253,#1254,#1255);
#1253 = CARTESIAN_POINT('',(51.5,56.,2.));
#1254 = DIRECTION('',(-1.,6.123233995737E-17,0.));
#1255 = DIRECTION('',(6.123233995737E-17,1.,0.));
#1256 = ORIENTED_EDGE('',*,*,#1257,.T.);
#1257 = EDGE_CURVE('',#1249,#1182,#1258,.T.);
#1258 = LINE('',#1259,#1260);
#1259 = CARTESIAN_POINT('',(51.5,56.,-4.440892098501E-16));
#1260 = VECTOR('',#1261,1.);
#1261 = DIRECTION('',(-1.,0.,0.));
#1262 = ORIENTED_EDGE('',*,*,#1214,.F.);
#1263 = ORIENTED_EDGE('',*,*,#635,.F.);
#1264 = CYLINDRICAL_SURFACE('',#1265,2.);
#1265 = AXIS2_PLACEMENT_3D('',#1266,#1267,#1268);
#1266 = CARTESIAN_POINT('',(51.5,56.,2.));
#1267 = DIRECTION('',(-1.,0.,0.));
#1268 = DIRECTION('',(0.,1.,0.));
#1269 = ADVANCED_FACE('',(#1270),#1289,.T.);
#1270 = FACE_BOUND('',#1271,.T.);
#1271 = EDGE_LOOP('',(#1272,#1273,#1281,#1288));
#1272 = ORIENTED_EDGE('',*,*,#1233,.T.);
#1273 = ORIENTED_EDGE('',*,*,#1274,.T.);
#1274 = EDGE_CURVE('',#1191,#1275,#1277,.T.);
#1275 = VERTEX_POINT('',#1276);
#1276 = CARTESIAN_POINT('',(51.5,-56.,-4.440892098501E-16));
#1277 = LINE('',#1278,#1279);
#1278 = CARTESIAN_POINT('',(-51.5,-56.,-4.440892098501E-16));
#1279 = VECTOR('',#1280,1.);
#1280 = DIRECTION('',(1.,0.,0.));
#1281 = ORIENTED_EDGE('',*,*,#1282,.F.);
#1282 = EDGE_CURVE('',#652,#1275,#1283,.T.);
#1283 = CIRCLE('',#1284,2.);
#1284 = AXIS2_PLACEMENT_3D('',#1285,#1286,#1287);
#1285 = CARTESIAN_POINT('',(51.5,-56.,2.));
#1286 = DIRECTION('',(1.,0.,0.));
#1287 = DIRECTION('',(0.,-1.,0.));
#1288 = ORIENTED_EDGE('',*,*,#659,.F.);
#1289 = CYLINDRICAL_SURFACE('',#1290,2.);
#1290 = AXIS2_PLACEMENT_3D('',#1291,#1292,#1293);
#1291 = CARTESIAN_POINT('',(-51.5,-56.,2.));
#1292 = DIRECTION('',(1.,0.,0.));
#1293 = DIRECTION('',(0.,-1.,0.));
#1294 = ADVANCED_FACE('',(#1295),#1311,.F.);
#1295 = FACE_BOUND('',#1296,.F.);
#1296 = EDGE_LOOP('',(#1297,#1303,#1304,#1310));
#1297 = ORIENTED_EDGE('',*,*,#1298,.F.);
#1298 = EDGE_CURVE('',#670,#812,#1299,.T.);
#1299 = LINE('',#1300,#1301);
#1300 = CARTESIAN_POINT('',(-19.,-58.,11.5));
#1301 = VECTOR('',#1302,1.);
#1302 = DIRECTION('',(0.,1.,-2.22044604925E-16));
#1303 = ORIENTED_EDGE('',*,*,#728,.T.);
#1304 = ORIENTED_EDGE('',*,*,#1305,.T.);
#1305 = EDGE_CURVE('',#721,#820,#1306,.T.);
#1306 = LINE('',#1307,#1308);
#1307 = CARTESIAN_POINT('',(-18.,-58.,12.5));
#1308 = VECTOR('',#1309,1.);
#1309 = DIRECTION('',(0.,1.,-2.22044604925E-16));
#1310 = ORIENTED_EDGE('',*,*,#819,.F.);
#1311 = CYLINDRICAL_SURFACE('',#1312,1.);
#1312 = AXIS2_PLACEMENT_3D('',#1313,#1314,#1315);
#1313 = CARTESIAN_POINT('',(-18.,-58.,11.5));
#1314 = DIRECTION('',(0.,1.,-2.22044604925E-16));
#1315 = DIRECTION('',(-1.,0.,0.));
#1316 = ADVANCED_FACE('',(#1317),#1328,.T.);
#1317 = FACE_BOUND('',#1318,.T.);
#1318 = EDGE_LOOP('',(#1319,#1320,#1321,#1322));
#1319 = ORIENTED_EDGE('',*,*,#720,.F.);
#1320 = ORIENTED_EDGE('',*,*,#1305,.T.);
#1321 = ORIENTED_EDGE('',*,*,#828,.F.);
#1322 = ORIENTED_EDGE('',*,*,#1323,.F.);
#1323 = EDGE_CURVE('',#712,#829,#1324,.T.);
#1324 = LINE('',#1325,#1326);
#1325 = CARTESIAN_POINT('',(-10.,-58.,12.5));
#1326 = VECTOR('',#1327,1.);
#1327 = DIRECTION('',(0.,1.,-2.22044604925E-16));
#1328 = PLANE('',#1329);
#1329 = AXIS2_PLACEMENT_3D('',#1330,#1331,#1332);
#1330 = CARTESIAN_POINT('',(-19.,-58.,12.5));
#1331 = DIRECTION('',(0.,-2.22044604925E-16,-1.));
#1332 = DIRECTION('',(1.,0.,0.));
#1333 = ADVANCED_FACE('',(#1334),#1345,.F.);
#1334 = FACE_BOUND('',#1335,.F.);
#1335 = EDGE_LOOP('',(#1336,#1337,#1338,#1344));
#1336 = ORIENTED_EDGE('',*,*,#1323,.F.);
#1337 = ORIENTED_EDGE('',*,*,#711,.T.);
#1338 = ORIENTED_EDGE('',*,*,#1339,.T.);
#1339 = EDGE_CURVE('',#704,#837,#1340,.T.);
#1340 = LINE('',#1341,#1342);
#1341 = CARTESIAN_POINT('',(-9.,-58.,11.5));
#1342 = VECTOR('',#1343,1.);
#1343 = DIRECTION('',(0.,1.,-2.22044604925E-16));
#1344 = ORIENTED_EDGE('',*,*,#836,.F.);
#1345 = CYLINDRICAL_SURFACE('',#1346,1.);
#1346 = AXIS2_PLACEMENT_3D('',#1347,#1348,#1349);
#1347 = CARTESIAN_POINT('',(-10.,-58.,11.5));
#1348 = DIRECTION('',(0.,1.,-2.22044604925E-16));
#1349 = DIRECTION('',(0.,2.22044604925E-16,1.));
#1350 = ADVANCED_FACE('',(#1351),#1362,.T.);
#1351 = FACE_BOUND('',#1352,.F.);
#1352 = EDGE_LOOP('',(#1353,#1360,#1361));
#1353 = ORIENTED_EDGE('',*,*,#1354,.F.);
#1354 = EDGE_CURVE('',#745,#1249,#1355,.T.);
#1355 = CIRCLE('',#1356,2.);
#1356 = AXIS2_PLACEMENT_3D('',#1357,#1358,#1359);
#1357 = CARTESIAN_POINT('',(51.5,56.,2.));
#1358 = DIRECTION('',(-0.,1.,0.));
#1359 = DIRECTION('',(1.,0.,0.));
#1360 = ORIENTED_EDGE('',*,*,#744,.T.);
#1361 = ORIENTED_EDGE('',*,*,#1248,.T.);
#1362 = SPHERICAL_SURFACE('',#1363,2.);
#1363 = AXIS2_PLACEMENT_3D('',#1364,#1365,#1366);
#1364 = CARTESIAN_POINT('',(51.5,56.,2.));
#1365 = DIRECTION('',(0.,0.,-1.));
#1366 = DIRECTION('',(1.,0.,0.));
#1367 = ADVANCED_FACE('',(#1368),#1379,.T.);
#1368 = FACE_BOUND('',#1369,.F.);
#1369 = EDGE_LOOP('',(#1370,#1371,#1372));
#1370 = ORIENTED_EDGE('',*,*,#1282,.F.);
#1371 = ORIENTED_EDGE('',*,*,#769,.T.);
#1372 = ORIENTED_EDGE('',*,*,#1373,.T.);
#1373 = EDGE_CURVE('',#770,#1275,#1374,.T.);
#1374 = CIRCLE('',#1375,2.);
#1375 = AXIS2_PLACEMENT_3D('',#1376,#1377,#1378);
#1376 = CARTESIAN_POINT('',(51.5,-56.,2.));
#1377 = DIRECTION('',(6.123233995737E-17,1.,0.));
#1378 = DIRECTION('',(1.,-6.123233995737E-17,0.));
#1379 = SPHERICAL_SURFACE('',#1380,2.);
#1380 = AXIS2_PLACEMENT_3D('',#1381,#1382,#1383);
#1381 = CARTESIAN_POINT('',(51.5,-56.,2.));
#1382 = DIRECTION('',(0.,0.,-1.));
#1383 = DIRECTION('',(0.,-1.,0.));
#1384 = ADVANCED_FACE('',(#1385),#1396,.T.);
#1385 = FACE_BOUND('',#1386,.T.);
#1386 = EDGE_LOOP('',(#1387,#1388,#1394,#1395));
#1387 = ORIENTED_EDGE('',*,*,#1373,.T.);
#1388 = ORIENTED_EDGE('',*,*,#1389,.T.);
#1389 = EDGE_CURVE('',#1275,#1249,#1390,.T.);
#1390 = LINE('',#1391,#1392);
#1391 = CARTESIAN_POINT('',(51.5,-56.,-4.440892098501E-16));
#1392 = VECTOR('',#1393,1.);
#1393 = DIRECTION('',(0.,1.,0.));
#1394 = ORIENTED_EDGE('',*,*,#1354,.F.);
#1395 = ORIENTED_EDGE('',*,*,#796,.F.);
#1396 = CYLINDRICAL_SURFACE('',#1397,2.);
#1397 = AXIS2_PLACEMENT_3D('',#1398,#1399,#1400);
#1398 = CARTESIAN_POINT('',(51.5,-56.,2.));
#1399 = DIRECTION('',(0.,1.,0.));
#1400 = DIRECTION('',(1.,0.,0.));
#1401 = ADVANCED_FACE('',(#1402),#1422,.T.);
#1402 = FACE_BOUND('',#1403,.T.);
#1403 = EDGE_LOOP('',(#1404,#1413,#1414,#1415));
#1404 = ORIENTED_EDGE('',*,*,#1405,.F.);
#1405 = EDGE_CURVE('',#916,#1406,#1408,.T.);
#1406 = VERTEX_POINT('',#1407);
#1407 = CARTESIAN_POINT('',(-50.5,-39.770163,10.));
#1408 = CIRCLE('',#1409,0.4);
#1409 = AXIS2_PLACEMENT_3D('',#1410,#1411,#1412);
#1410 = CARTESIAN_POINT('',(-50.9,-39.770163,10.));
#1411 = DIRECTION('',(0.,0.,-1.));
#1412 = DIRECTION('',(0.,1.,0.));
#1413 = ORIENTED_EDGE('',*,*,#923,.T.);
#1414 = ORIENTED_EDGE('',*,*,#1405,.T.);
#1415 = ORIENTED_EDGE('',*,*,#1416,.F.);
#1416 = EDGE_CURVE('',#1406,#1406,#1417,.T.);
#1417 = CIRCLE('',#1418,0.229837);
#1418 = AXIS2_PLACEMENT_3D('',#1419,#1420,#1421);
#1419 = CARTESIAN_POINT('',(-50.5,-40.,10.));
#1420 = DIRECTION('',(1.,0.,0.));
#1421 = DIRECTION('',(0.,1.,0.));
#1422 = SURFACE_OF_REVOLUTION('',#1423,#1431);
#1423 = B_SPLINE_CURVE_WITH_KNOTS('',6,(#1424,#1425,#1426,#1427,#1428,
    #1429,#1430),.UNSPECIFIED.,.F.,.F.,(7,7),(0.,1.570796326795),
  .PIECEWISE_BEZIER_KNOTS.);
#1424 = CARTESIAN_POINT('',(-50.9,-39.370163,10.));
#1425 = CARTESIAN_POINT('',(-50.79528024488,-39.370163,10.));
#1426 = CARTESIAN_POINT('',(-50.69056939971,-39.4030540744,10.));
#1427 = CARTESIAN_POINT('',(-50.59872394014,-39.46888694014,10.));
#1428 = CARTESIAN_POINT('',(-50.5328910744,-39.56073239971,10.));
#1429 = CARTESIAN_POINT('',(-50.5,-39.66544324488,10.));
#1430 = CARTESIAN_POINT('',(-50.5,-39.770163,10.));
#1431 = AXIS1_PLACEMENT('',#1432,#1433);
#1432 = CARTESIAN_POINT('',(-50.9,-40.,10.));
#1433 = DIRECTION('',(1.,0.,0.));
#1434 = ADVANCED_FACE('',(#1435),#1455,.T.);
#1435 = FACE_BOUND('',#1436,.T.);
#1436 = EDGE_LOOP('',(#1437,#1446,#1447,#1448));
#1437 = ORIENTED_EDGE('',*,*,#1438,.F.);
#1438 = EDGE_CURVE('',#941,#1439,#1441,.T.);
#1439 = VERTEX_POINT('',#1440);
#1440 = CARTESIAN_POINT('',(-50.5,40.229837,10.));
#1441 = CIRCLE('',#1442,0.4);
#1442 = AXIS2_PLACEMENT_3D('',#1443,#1444,#1445);
#1443 = CARTESIAN_POINT('',(-50.9,40.229837,10.));
#1444 = DIRECTION('',(0.,0.,-1.));
#1445 = DIRECTION('',(0.,1.,0.));
#1446 = ORIENTED_EDGE('',*,*,#948,.T.);
#1447 = ORIENTED_EDGE('',*,*,#1438,.T.);
#1448 = ORIENTED_EDGE('',*,*,#1449,.F.);
#1449 = EDGE_CURVE('',#1439,#1439,#1450,.T.);
#1450 = CIRCLE('',#1451,0.229837);
#1451 = AXIS2_PLACEMENT_3D('',#1452,#1453,#1454);
#1452 = CARTESIAN_POINT('',(-50.5,40.,10.));
#1453 = DIRECTION('',(1.,0.,0.));
#1454 = DIRECTION('',(0.,1.,0.));
#1455 = SURFACE_OF_REVOLUTION('',#1456,#1464);
#1456 = B_SPLINE_CURVE_WITH_KNOTS('',6,(#1457,#1458,#1459,#1460,#1461,
    #1462,#1463),.UNSPECIFIED.,.F.,.F.,(7,7),(0.,1.570796326795),
  .PIECEWISE_BEZIER_KNOTS.);
#1457 = CARTESIAN_POINT('',(-50.9,40.629837,10.));
#1458 = CARTESIAN_POINT('',(-50.79528024488,40.629837,10.));
#1459 = CARTESIAN_POINT('',(-50.69056939971,40.596945925592,10.));
#1460 = CARTESIAN_POINT('',(-50.59872394014,40.531113059856,10.));
#1461 = CARTESIAN_POINT('',(-50.5328910744,40.439267600282,10.));
#1462 = CARTESIAN_POINT('',(-50.5,40.33455675512,10.));
#1463 = CARTESIAN_POINT('',(-50.5,40.229837,10.));
#1464 = AXIS1_PLACEMENT('',#1465,#1466);
#1465 = CARTESIAN_POINT('',(-50.9,40.,10.));
#1466 = DIRECTION('',(1.,0.,0.));
#1467 = ADVANCED_FACE('',(#1468),#1493,.F.);
#1468 = FACE_BOUND('',#1469,.F.);
#1469 = EDGE_LOOP('',(#1470,#1478,#1486,#1492));
#1470 = ORIENTED_EDGE('',*,*,#1471,.T.);
#1471 = EDGE_CURVE('',#978,#1472,#1474,.T.);
#1472 = VERTEX_POINT('',#1473);
#1473 = CARTESIAN_POINT('',(50.85,-25.,9.85));
#1474 = LINE('',#1475,#1476);
#1475 = CARTESIAN_POINT('',(51.5,-25.,9.85));
#1476 = VECTOR('',#1477,1.);
#1477 = DIRECTION('',(-1.,0.,0.));
#1478 = ORIENTED_EDGE('',*,*,#1479,.T.);
#1479 = EDGE_CURVE('',#1472,#1480,#1482,.T.);
#1480 = VERTEX_POINT('',#1481);
#1481 = CARTESIAN_POINT('',(50.85,-25.,10.15));
#1482 = LINE('',#1483,#1484);
#1483 = CARTESIAN_POINT('',(50.85,-25.,9.5));
#1484 = VECTOR('',#1485,1.);
#1485 = DIRECTION('',(0.,0.,1.));
#1486 = ORIENTED_EDGE('',*,*,#1487,.F.);
#1487 = EDGE_CURVE('',#987,#1480,#1488,.T.);
#1488 = LINE('',#1489,#1490);
#1489 = CARTESIAN_POINT('',(51.5,-25.,10.15));
#1490 = VECTOR('',#1491,1.);
#1491 = DIRECTION('',(-1.,0.,0.));
#1492 = ORIENTED_EDGE('',*,*,#986,.F.);
#1493 = PLANE('',#1494);
#1494 = AXIS2_PLACEMENT_3D('',#1495,#1496,#1497);
#1495 = CARTESIAN_POINT('',(51.5,-25.,9.5));
#1496 = DIRECTION('',(0.,1.,0.));
#1497 = DIRECTION('',(0.,0.,1.));
#1498 = ADVANCED_FACE('',(#1499),#1518,.T.);
#1499 = FACE_BOUND('',#1500,.T.);
#1500 = EDGE_LOOP('',(#1501,#1509,#1510,#1511));
#1501 = ORIENTED_EDGE('',*,*,#1502,.F.);
#1502 = EDGE_CURVE('',#1013,#1503,#1505,.T.);
#1503 = VERTEX_POINT('',#1504);
#1504 = CARTESIAN_POINT('',(50.85,-24.65,9.5));
#1505 = LINE('',#1506,#1507);
#1506 = CARTESIAN_POINT('',(51.5,-24.65,9.5));
#1507 = VECTOR('',#1508,1.);
#1508 = DIRECTION('',(-1.,0.,0.));
#1509 = ORIENTED_EDGE('',*,*,#1021,.F.);
#1510 = ORIENTED_EDGE('',*,*,#1471,.T.);
#1511 = ORIENTED_EDGE('',*,*,#1512,.T.);
#1512 = EDGE_CURVE('',#1472,#1503,#1513,.T.);
#1513 = CIRCLE('',#1514,0.35);
#1514 = AXIS2_PLACEMENT_3D('',#1515,#1516,#1517);
#1515 = CARTESIAN_POINT('',(50.85,-24.65,9.85));
#1516 = DIRECTION('',(1.,-0.,0.));
#1517 = DIRECTION('',(0.,0.,-1.));
#1518 = CYLINDRICAL_SURFACE('',#1519,0.35);
#1519 = AXIS2_PLACEMENT_3D('',#1520,#1521,#1522);
#1520 = CARTESIAN_POINT('',(51.5,-24.65,9.85));
#1521 = DIRECTION('',(-1.,0.,0.));
#1522 = DIRECTION('',(0.,0.,-1.));
#1523 = ADVANCED_FACE('',(#1524),#1543,.T.);
#1524 = FACE_BOUND('',#1525,.T.);
#1525 = EDGE_LOOP('',(#1526,#1527,#1528,#1536));
#1526 = ORIENTED_EDGE('',*,*,#1487,.F.);
#1527 = ORIENTED_EDGE('',*,*,#1047,.T.);
#1528 = ORIENTED_EDGE('',*,*,#1529,.T.);
#1529 = EDGE_CURVE('',#1039,#1530,#1532,.T.);
#1530 = VERTEX_POINT('',#1531);
#1531 = CARTESIAN_POINT('',(50.85,-24.65,10.5));
#1532 = LINE('',#1533,#1534);
#1533 = CARTESIAN_POINT('',(51.5,-24.65,10.5));
#1534 = VECTOR('',#1535,1.);
#1535 = DIRECTION('',(-1.,0.,0.));
#1536 = ORIENTED_EDGE('',*,*,#1537,.F.);
#1537 = EDGE_CURVE('',#1480,#1530,#1538,.T.);
#1538 = CIRCLE('',#1539,0.35);
#1539 = AXIS2_PLACEMENT_3D('',#1540,#1541,#1542);
#1540 = CARTESIAN_POINT('',(50.85,-24.65,10.15));
#1541 = DIRECTION('',(-1.,0.,-6.123233995737E-17));
#1542 = DIRECTION('',(-6.123233995737E-17,0.,1.));
#1543 = CYLINDRICAL_SURFACE('',#1544,0.35);
#1544 = AXIS2_PLACEMENT_3D('',#1545,#1546,#1547);
#1545 = CARTESIAN_POINT('',(51.5,-24.65,10.15));
#1546 = DIRECTION('',(-1.,0.,0.));
#1547 = DIRECTION('',(-0.,-1.,-0.));
#1548 = ADVANCED_FACE('',(#1549),#1567,.F.);
#1549 = FACE_BOUND('',#1550,.F.);
#1550 = EDGE_LOOP('',(#1551,#1559,#1560,#1561));
#1551 = ORIENTED_EDGE('',*,*,#1552,.T.);
#1552 = EDGE_CURVE('',#1553,#1503,#1555,.T.);
#1553 = VERTEX_POINT('',#1554);
#1554 = CARTESIAN_POINT('',(50.85,24.65,9.5));
#1555 = LINE('',#1556,#1557);
#1556 = CARTESIAN_POINT('',(50.85,25.,9.5));
#1557 = VECTOR('',#1558,1.);
#1558 = DIRECTION('',(0.,-1.,0.));
#1559 = ORIENTED_EDGE('',*,*,#1502,.F.);
#1560 = ORIENTED_EDGE('',*,*,#1071,.F.);
#1561 = ORIENTED_EDGE('',*,*,#1562,.T.);
#1562 = EDGE_CURVE('',#1063,#1553,#1563,.T.);
#1563 = LINE('',#1564,#1565);
#1564 = CARTESIAN_POINT('',(51.5,24.65,9.5));
#1565 = VECTOR('',#1566,1.);
#1566 = DIRECTION('',(-1.,0.,0.));
#1567 = PLANE('',#1568);
#1568 = AXIS2_PLACEMENT_3D('',#1569,#1570,#1571);
#1569 = CARTESIAN_POINT('',(51.5,25.,9.5));
#1570 = DIRECTION('',(0.,0.,1.));
#1571 = DIRECTION('',(0.,-1.,0.));
#1572 = ADVANCED_FACE('',(#1573),#1591,.F.);
#1573 = FACE_BOUND('',#1574,.F.);
#1574 = EDGE_LOOP('',(#1575,#1583,#1589,#1590));
#1575 = ORIENTED_EDGE('',*,*,#1576,.T.);
#1576 = EDGE_CURVE('',#1530,#1577,#1579,.T.);
#1577 = VERTEX_POINT('',#1578);
#1578 = CARTESIAN_POINT('',(50.85,24.65,10.5));
#1579 = LINE('',#1580,#1581);
#1580 = CARTESIAN_POINT('',(50.85,-25.,10.5));
#1581 = VECTOR('',#1582,1.);
#1582 = DIRECTION('',(0.,1.,0.));
#1583 = ORIENTED_EDGE('',*,*,#1584,.F.);
#1584 = EDGE_CURVE('',#1089,#1577,#1585,.T.);
#1585 = LINE('',#1586,#1587);
#1586 = CARTESIAN_POINT('',(51.5,24.65,10.5));
#1587 = VECTOR('',#1588,1.);
#1588 = DIRECTION('',(-1.,0.,0.));
#1589 = ORIENTED_EDGE('',*,*,#1088,.F.);
#1590 = ORIENTED_EDGE('',*,*,#1529,.T.);
#1591 = PLANE('',#1592);
#1592 = AXIS2_PLACEMENT_3D('',#1593,#1594,#1595);
#1593 = CARTESIAN_POINT('',(51.5,-25.,10.5));
#1594 = DIRECTION('',(0.,0.,-1.));
#1595 = DIRECTION('',(0.,1.,0.));
#1596 = ADVANCED_FACE('',(#1597),#1616,.T.);
#1597 = FACE_BOUND('',#1598,.T.);
#1598 = EDGE_LOOP('',(#1599,#1607,#1608,#1609));
#1599 = ORIENTED_EDGE('',*,*,#1600,.F.);
#1600 = EDGE_CURVE('',#1113,#1601,#1603,.T.);
#1601 = VERTEX_POINT('',#1602);
#1602 = CARTESIAN_POINT('',(50.85,25.,9.85));
#1603 = LINE('',#1604,#1605);
#1604 = CARTESIAN_POINT('',(51.5,25.,9.85));
#1605 = VECTOR('',#1606,1.);
#1606 = DIRECTION('',(-1.,0.,0.));
#1607 = ORIENTED_EDGE('',*,*,#1123,.T.);
#1608 = ORIENTED_EDGE('',*,*,#1562,.T.);
#1609 = ORIENTED_EDGE('',*,*,#1610,.F.);
#1610 = EDGE_CURVE('',#1601,#1553,#1611,.T.);
#1611 = CIRCLE('',#1612,0.35);
#1612 = AXIS2_PLACEMENT_3D('',#1613,#1614,#1615);
#1613 = CARTESIAN_POINT('',(50.85,24.65,9.85));
#1614 = DIRECTION('',(-1.,0.,6.123233995737E-17));
#1615 = DIRECTION('',(-6.123233995737E-17,0.,-1.));
#1616 = CYLINDRICAL_SURFACE('',#1617,0.35);
#1617 = AXIS2_PLACEMENT_3D('',#1618,#1619,#1620);
#1618 = CARTESIAN_POINT('',(51.5,24.65,9.85));
#1619 = DIRECTION('',(-1.,0.,0.));
#1620 = DIRECTION('',(0.,1.,0.));
#1621 = ADVANCED_FACE('',(#1622),#1641,.T.);
#1622 = FACE_BOUND('',#1623,.F.);
#1623 = EDGE_LOOP('',(#1624,#1632,#1633,#1634));
#1624 = ORIENTED_EDGE('',*,*,#1625,.F.);
#1625 = EDGE_CURVE('',#1141,#1626,#1628,.T.);
#1626 = VERTEX_POINT('',#1627);
#1627 = CARTESIAN_POINT('',(50.85,25.,10.15));
#1628 = LINE('',#1629,#1630);
#1629 = CARTESIAN_POINT('',(51.5,25.,10.15));
#1630 = VECTOR('',#1631,1.);
#1631 = DIRECTION('',(-1.,0.,0.));
#1632 = ORIENTED_EDGE('',*,*,#1149,.F.);
#1633 = ORIENTED_EDGE('',*,*,#1584,.T.);
#1634 = ORIENTED_EDGE('',*,*,#1635,.F.);
#1635 = EDGE_CURVE('',#1626,#1577,#1636,.T.);
#1636 = CIRCLE('',#1637,0.35);
#1637 = AXIS2_PLACEMENT_3D('',#1638,#1639,#1640);
#1638 = CARTESIAN_POINT('',(50.85,24.65,10.15));
#1639 = DIRECTION('',(1.,0.,6.123233995737E-17));
#1640 = DIRECTION('',(-6.123233995737E-17,0.,1.));
#1641 = CYLINDRICAL_SURFACE('',#1642,0.35);
#1642 = AXIS2_PLACEMENT_3D('',#1643,#1644,#1645);
#1643 = CARTESIAN_POINT('',(51.5,24.65,10.15));
#1644 = DIRECTION('',(-1.,0.,0.));
#1645 = DIRECTION('',(0.,1.,0.));
#1646 = ADVANCED_FACE('',(#1647),#1658,.F.);
#1647 = FACE_BOUND('',#1648,.F.);
#1648 = EDGE_LOOP('',(#1649,#1655,#1656,#1657));
#1649 = ORIENTED_EDGE('',*,*,#1650,.T.);
#1650 = EDGE_CURVE('',#1626,#1601,#1651,.T.);
#1651 = LINE('',#1652,#1653);
#1652 = CARTESIAN_POINT('',(50.85,25.,10.5));
#1653 = VECTOR('',#1654,1.);
#1654 = DIRECTION('',(0.,0.,-1.));
#1655 = ORIENTED_EDGE('',*,*,#1600,.F.);
#1656 = ORIENTED_EDGE('',*,*,#1165,.F.);
#1657 = ORIENTED_EDGE('',*,*,#1625,.T.);
#1658 = PLANE('',#1659);
#1659 = AXIS2_PLACEMENT_3D('',#1660,#1661,#1662);
#1660 = CARTESIAN_POINT('',(51.5,25.,10.5));
#1661 = DIRECTION('',(-0.,-1.,-0.));
#1662 = DIRECTION('',(0.,0.,-1.));
#1663 = ADVANCED_FACE('',(#1664),#1670,.T.);
#1664 = FACE_BOUND('',#1665,.T.);
#1665 = EDGE_LOOP('',(#1666,#1667,#1668,#1669));
#1666 = ORIENTED_EDGE('',*,*,#1274,.F.);
#1667 = ORIENTED_EDGE('',*,*,#1190,.F.);
#1668 = ORIENTED_EDGE('',*,*,#1257,.F.);
#1669 = ORIENTED_EDGE('',*,*,#1389,.F.);
#1670 = PLANE('',#1671);
#1671 = AXIS2_PLACEMENT_3D('',#1672,#1673,#1674);
#1672 = CARTESIAN_POINT('',(0.,0.,0.));
#1673 = DIRECTION('',(-0.,-0.,-1.));
#1674 = DIRECTION('',(-1.,0.,0.));
#1675 = ADVANCED_FACE('',(#1676),#1679,.T.);
#1676 = FACE_BOUND('',#1677,.T.);
#1677 = EDGE_LOOP('',(#1678));
#1678 = ORIENTED_EDGE('',*,*,#1416,.T.);
#1679 = PLANE('',#1680);
#1680 = AXIS2_PLACEMENT_3D('',#1681,#1682,#1683);
#1681 = CARTESIAN_POINT('',(-50.5,4.342203244774E-15,10.));
#1682 = DIRECTION('',(1.,0.,0.));
#1683 = DIRECTION('',(0.,0.,1.));
#1684 = ADVANCED_FACE('',(#1685),#1688,.T.);
#1685 = FACE_BOUND('',#1686,.T.);
#1686 = EDGE_LOOP('',(#1687));
#1687 = ORIENTED_EDGE('',*,*,#1449,.T.);
#1688 = PLANE('',#1689);
#1689 = AXIS2_PLACEMENT_3D('',#1690,#1691,#1692);
#1690 = CARTESIAN_POINT('',(-50.5,4.342203244774E-15,10.));
#1691 = DIRECTION('',(1.,0.,0.));
#1692 = DIRECTION('',(0.,0.,1.));
#1693 = ADVANCED_FACE('',(#1694),#1721,.T.);
#1694 = FACE_BOUND('',#1695,.F.);
#1695 = EDGE_LOOP('',(#1696,#1705,#1713,#1720));
#1696 = ORIENTED_EDGE('',*,*,#1697,.T.);
#1697 = EDGE_CURVE('',#1472,#1698,#1700,.T.);
#1698 = VERTEX_POINT('',#1699);
#1699 = CARTESIAN_POINT('',(50.5,-24.65,9.85));
#1700 = CIRCLE('',#1701,0.35);
#1701 = AXIS2_PLACEMENT_3D('',#1702,#1703,#1704);
#1702 = CARTESIAN_POINT('',(50.85,-24.65,9.85));
#1703 = DIRECTION('',(6.123233995737E-17,0.,-1.));
#1704 = DIRECTION('',(-1.,0.,-6.123233995737E-17));
#1705 = ORIENTED_EDGE('',*,*,#1706,.T.);
#1706 = EDGE_CURVE('',#1698,#1707,#1709,.T.);
#1707 = VERTEX_POINT('',#1708);
#1708 = CARTESIAN_POINT('',(50.5,-24.65,10.15));
#1709 = LINE('',#1710,#1711);
#1710 = CARTESIAN_POINT('',(50.5,-24.65,9.5));
#1711 = VECTOR('',#1712,1.);
#1712 = DIRECTION('',(0.,0.,1.));
#1713 = ORIENTED_EDGE('',*,*,#1714,.F.);
#1714 = EDGE_CURVE('',#1480,#1707,#1715,.T.);
#1715 = CIRCLE('',#1716,0.35);
#1716 = AXIS2_PLACEMENT_3D('',#1717,#1718,#1719);
#1717 = CARTESIAN_POINT('',(50.85,-24.65,10.15));
#1718 = DIRECTION('',(0.,0.,-1.));
#1719 = DIRECTION('',(-1.,0.,0.));
#1720 = ORIENTED_EDGE('',*,*,#1479,.F.);
#1721 = CYLINDRICAL_SURFACE('',#1722,0.35);
#1722 = AXIS2_PLACEMENT_3D('',#1723,#1724,#1725);
#1723 = CARTESIAN_POINT('',(50.85,-24.65,9.5));
#1724 = DIRECTION('',(0.,0.,1.));
#1725 = DIRECTION('',(0.,-1.,0.));
#1726 = ADVANCED_FACE('',(#1727),#1738,.T.);
#1727 = FACE_BOUND('',#1728,.T.);
#1728 = EDGE_LOOP('',(#1729,#1730,#1731));
#1729 = ORIENTED_EDGE('',*,*,#1512,.F.);
#1730 = ORIENTED_EDGE('',*,*,#1697,.T.);
#1731 = ORIENTED_EDGE('',*,*,#1732,.F.);
#1732 = EDGE_CURVE('',#1503,#1698,#1733,.T.);
#1733 = CIRCLE('',#1734,0.35);
#1734 = AXIS2_PLACEMENT_3D('',#1735,#1736,#1737);
#1735 = CARTESIAN_POINT('',(50.85,-24.65,9.85));
#1736 = DIRECTION('',(0.,1.,0.));
#1737 = DIRECTION('',(0.,0.,-1.));
#1738 = SPHERICAL_SURFACE('',#1739,0.35);
#1739 = AXIS2_PLACEMENT_3D('',#1740,#1741,#1742);
#1740 = CARTESIAN_POINT('',(50.85,-24.65,9.85));
#1741 = DIRECTION('',(0.,1.,0.));
#1742 = DIRECTION('',(0.,0.,-1.));
#1743 = ADVANCED_FACE('',(#1744),#1755,.T.);
#1744 = FACE_BOUND('',#1745,.T.);
#1745 = EDGE_LOOP('',(#1746,#1747,#1748));
#1746 = ORIENTED_EDGE('',*,*,#1714,.F.);
#1747 = ORIENTED_EDGE('',*,*,#1537,.T.);
#1748 = ORIENTED_EDGE('',*,*,#1749,.F.);
#1749 = EDGE_CURVE('',#1707,#1530,#1750,.T.);
#1750 = CIRCLE('',#1751,0.35);
#1751 = AXIS2_PLACEMENT_3D('',#1752,#1753,#1754);
#1752 = CARTESIAN_POINT('',(50.85,-24.65,10.15));
#1753 = DIRECTION('',(0.,1.,-0.));
#1754 = DIRECTION('',(-1.,0.,0.));
#1755 = SPHERICAL_SURFACE('',#1756,0.35);
#1756 = AXIS2_PLACEMENT_3D('',#1757,#1758,#1759);
#1757 = CARTESIAN_POINT('',(50.85,-24.65,10.15));
#1758 = DIRECTION('',(0.,1.,0.));
#1759 = DIRECTION('',(-1.,0.,0.));
#1760 = ADVANCED_FACE('',(#1761),#1780,.T.);
#1761 = FACE_BOUND('',#1762,.F.);
#1762 = EDGE_LOOP('',(#1763,#1764,#1773,#1779));
#1763 = ORIENTED_EDGE('',*,*,#1552,.F.);
#1764 = ORIENTED_EDGE('',*,*,#1765,.F.);
#1765 = EDGE_CURVE('',#1766,#1553,#1768,.T.);
#1766 = VERTEX_POINT('',#1767);
#1767 = CARTESIAN_POINT('',(50.5,24.65,9.85));
#1768 = CIRCLE('',#1769,0.35);
#1769 = AXIS2_PLACEMENT_3D('',#1770,#1771,#1772);
#1770 = CARTESIAN_POINT('',(50.85,24.65,9.85));
#1771 = DIRECTION('',(0.,-1.,0.));
#1772 = DIRECTION('',(-1.,0.,0.));
#1773 = ORIENTED_EDGE('',*,*,#1774,.T.);
#1774 = EDGE_CURVE('',#1766,#1698,#1775,.T.);
#1775 = LINE('',#1776,#1777);
#1776 = CARTESIAN_POINT('',(50.5,25.,9.85));
#1777 = VECTOR('',#1778,1.);
#1778 = DIRECTION('',(0.,-1.,0.));
#1779 = ORIENTED_EDGE('',*,*,#1732,.F.);
#1780 = CYLINDRICAL_SURFACE('',#1781,0.35);
#1781 = AXIS2_PLACEMENT_3D('',#1782,#1783,#1784);
#1782 = CARTESIAN_POINT('',(50.85,25.,9.85));
#1783 = DIRECTION('',(0.,-1.,0.));
#1784 = DIRECTION('',(0.,0.,-1.));
#1785 = ADVANCED_FACE('',(#1786),#1805,.T.);
#1786 = FACE_BOUND('',#1787,.F.);
#1787 = EDGE_LOOP('',(#1788,#1789,#1790,#1798));
#1788 = ORIENTED_EDGE('',*,*,#1576,.F.);
#1789 = ORIENTED_EDGE('',*,*,#1749,.F.);
#1790 = ORIENTED_EDGE('',*,*,#1791,.T.);
#1791 = EDGE_CURVE('',#1707,#1792,#1794,.T.);
#1792 = VERTEX_POINT('',#1793);
#1793 = CARTESIAN_POINT('',(50.5,24.65,10.15));
#1794 = LINE('',#1795,#1796);
#1795 = CARTESIAN_POINT('',(50.5,-25.,10.15));
#1796 = VECTOR('',#1797,1.);
#1797 = DIRECTION('',(0.,1.,0.));
#1798 = ORIENTED_EDGE('',*,*,#1799,.T.);
#1799 = EDGE_CURVE('',#1792,#1577,#1800,.T.);
#1800 = CIRCLE('',#1801,0.35);
#1801 = AXIS2_PLACEMENT_3D('',#1802,#1803,#1804);
#1802 = CARTESIAN_POINT('',(50.85,24.65,10.15));
#1803 = DIRECTION('',(0.,1.,-0.));
#1804 = DIRECTION('',(-1.,0.,0.));
#1805 = CYLINDRICAL_SURFACE('',#1806,0.35);
#1806 = AXIS2_PLACEMENT_3D('',#1807,#1808,#1809);
#1807 = CARTESIAN_POINT('',(50.85,-25.,10.15));
#1808 = DIRECTION('',(0.,1.,0.));
#1809 = DIRECTION('',(0.,0.,1.));
#1810 = ADVANCED_FACE('',(#1811),#1822,.T.);
#1811 = FACE_BOUND('',#1812,.T.);
#1812 = EDGE_LOOP('',(#1813,#1820,#1821));
#1813 = ORIENTED_EDGE('',*,*,#1814,.F.);
#1814 = EDGE_CURVE('',#1601,#1766,#1815,.T.);
#1815 = CIRCLE('',#1816,0.35);
#1816 = AXIS2_PLACEMENT_3D('',#1817,#1818,#1819);
#1817 = CARTESIAN_POINT('',(50.85,24.65,9.85));
#1818 = DIRECTION('',(0.,0.,1.));
#1819 = DIRECTION('',(-1.,0.,0.));
#1820 = ORIENTED_EDGE('',*,*,#1610,.T.);
#1821 = ORIENTED_EDGE('',*,*,#1765,.F.);
#1822 = SPHERICAL_SURFACE('',#1823,0.35);
#1823 = AXIS2_PLACEMENT_3D('',#1824,#1825,#1826);
#1824 = CARTESIAN_POINT('',(50.85,24.65,9.85));
#1825 = DIRECTION('',(0.,-1.,0.));
#1826 = DIRECTION('',(-1.,0.,0.));
#1827 = ADVANCED_FACE('',(#1828),#1839,.T.);
#1828 = FACE_BOUND('',#1829,.F.);
#1829 = EDGE_LOOP('',(#1830,#1837,#1838));
#1830 = ORIENTED_EDGE('',*,*,#1831,.F.);
#1831 = EDGE_CURVE('',#1626,#1792,#1832,.T.);
#1832 = CIRCLE('',#1833,0.35);
#1833 = AXIS2_PLACEMENT_3D('',#1834,#1835,#1836);
#1834 = CARTESIAN_POINT('',(50.85,24.65,10.15));
#1835 = DIRECTION('',(0.,0.,1.));
#1836 = DIRECTION('',(-1.,0.,0.));
#1837 = ORIENTED_EDGE('',*,*,#1635,.T.);
#1838 = ORIENTED_EDGE('',*,*,#1799,.F.);
#1839 = SPHERICAL_SURFACE('',#1840,0.35);
#1840 = AXIS2_PLACEMENT_3D('',#1841,#1842,#1843);
#1841 = CARTESIAN_POINT('',(50.85,24.65,10.15));
#1842 = DIRECTION('',(0.,-1.,0.));
#1843 = DIRECTION('',(-1.,0.,0.));
#1844 = ADVANCED_FACE('',(#1845),#1856,.T.);
#1845 = FACE_BOUND('',#1846,.F.);
#1846 = EDGE_LOOP('',(#1847,#1848,#1854,#1855));
#1847 = ORIENTED_EDGE('',*,*,#1831,.T.);
#1848 = ORIENTED_EDGE('',*,*,#1849,.T.);
#1849 = EDGE_CURVE('',#1792,#1766,#1850,.T.);
#1850 = LINE('',#1851,#1852);
#1851 = CARTESIAN_POINT('',(50.5,24.65,10.5));
#1852 = VECTOR('',#1853,1.);
#1853 = DIRECTION('',(0.,0.,-1.));
#1854 = ORIENTED_EDGE('',*,*,#1814,.F.);
#1855 = ORIENTED_EDGE('',*,*,#1650,.F.);
#1856 = CYLINDRICAL_SURFACE('',#1857,0.35);
#1857 = AXIS2_PLACEMENT_3D('',#1858,#1859,#1860);
#1858 = CARTESIAN_POINT('',(50.85,24.65,10.5));
#1859 = DIRECTION('',(0.,0.,-1.));
#1860 = DIRECTION('',(0.,1.,0.));
#1861 = ADVANCED_FACE('',(#1862),#1868,.F.);
#1862 = FACE_BOUND('',#1863,.F.);
#1863 = EDGE_LOOP('',(#1864,#1865,#1866,#1867));
#1864 = ORIENTED_EDGE('',*,*,#1791,.F.);
#1865 = ORIENTED_EDGE('',*,*,#1706,.F.);
#1866 = ORIENTED_EDGE('',*,*,#1774,.F.);
#1867 = ORIENTED_EDGE('',*,*,#1849,.F.);
#1868 = PLANE('',#1869);
#1869 = AXIS2_PLACEMENT_3D('',#1870,#1871,#1872);
#1870 = CARTESIAN_POINT('',(50.5,0.,10.));
#1871 = DIRECTION('',(1.,0.,0.));
#1872 = DIRECTION('',(0.,0.,1.));
#1873 = ADVANCED_FACE('',(#1874),#1882,.T.);
#1874 = FACE_BOUND('',#1875,.T.);
#1875 = EDGE_LOOP('',(#1876,#1877,#1878,#1879,#1880,#1881));
#1876 = ORIENTED_EDGE('',*,*,#251,.T.);
#1877 = ORIENTED_EDGE('',*,*,#811,.T.);
#1878 = ORIENTED_EDGE('',*,*,#1298,.F.);
#1879 = ORIENTED_EDGE('',*,*,#667,.F.);
#1880 = ORIENTED_EDGE('',*,*,#901,.T.);
#1881 = ORIENTED_EDGE('',*,*,#283,.T.);
#1882 = PLANE('',#1883);
#1883 = AXIS2_PLACEMENT_3D('',#1884,#1885,#1886);
#1884 = CARTESIAN_POINT('',(-19.,-56.7,13.45));
#1885 = DIRECTION('',(1.,0.,0.));
#1886 = DIRECTION('',(0.,0.,1.));
#1887 = ADVANCED_FACE('',(#1888),#1896,.T.);
#1888 = FACE_BOUND('',#1889,.T.);
#1889 = EDGE_LOOP('',(#1890,#1891,#1892,#1893,#1894,#1895));
#1890 = ORIENTED_EDGE('',*,*,#235,.T.);
#1891 = ORIENTED_EDGE('',*,*,#317,.F.);
#1892 = ORIENTED_EDGE('',*,*,#867,.F.);
#1893 = ORIENTED_EDGE('',*,*,#703,.F.);
#1894 = ORIENTED_EDGE('',*,*,#1339,.T.);
#1895 = ORIENTED_EDGE('',*,*,#845,.F.);
#1896 = PLANE('',#1897);
#1897 = AXIS2_PLACEMENT_3D('',#1898,#1899,#1900);
#1898 = CARTESIAN_POINT('',(-9.,-56.7,13.45));
#1899 = DIRECTION('',(-1.,-5.769378880404E-16,-0.));
#1900 = DIRECTION('',(5.769378880404E-16,-1.,0.));
#1901 = ( GEOMETRIC_REPRESENTATION_CONTEXT(3) 
GLOBAL_UNCERTAINTY_ASSIGNED_CONTEXT((#1905)) 
GLOBAL_UNIT_ASSIGNED_CONTEXT((#1902,#1903,#1904)) REPRESENTATION_CONTEXT
('Context #1','3D Context with UNIT and UNCERTAINTY') );
#1902 = ( LENGTH_UNIT() NAMED_UNIT(*) SI_UNIT(.MILLI.,.METRE.) );
#1903 = ( NAMED_UNIT(*) PLANE_ANGLE_UNIT() SI_UNIT($,.RADIAN.) );
#1904 = ( NAMED_UNIT(*) SI_UNIT($,.STERADIAN.) SOLID_ANGLE_UNIT() );
#1905 = UNCERTAINTY_MEASURE_WITH_UNIT(LENGTH_MEASURE(1.E-05),#1902,
  'distance_accuracy_value','confusion accuracy');
#1906 = PRODUCT_RELATED_PRODUCT_CATEGORY('part',$,(#7));
#1907 = MECHANICAL_DESIGN_GEOMETRIC_PRESENTATION_REPRESENTATION('',(
    #1908),#1901);
#1908 = STYLED_ITEM('color',(#1909),#15);
#1909 = PRESENTATION_STYLE_ASSIGNMENT((#1910,#1916));
#1910 = SURFACE_STYLE_USAGE(.BOTH.,#1911);
#1911 = SURFACE_SIDE_STYLE('',(#1912));
#1912 = SURFACE_STYLE_FILL_AREA(#1913);
#1913 = FILL_AREA_STYLE('',(#1914));
#1914 = FILL_AREA_STYLE_COLOUR('',#1915);
#1915 = COLOUR_RGB('',0.800000010877,0.800000010877,0.901960800373);
#1916 = CURVE_STYLE('',#1917,POSITIVE_LENGTH_MEASURE(0.1),#1918);
#1917 = DRAUGHTING_PRE_DEFINED_CURVE_FONT('continuous');
#1918 = COLOUR_RGB('',9.803921802644E-02,9.803921802644E-02,
  9.803921802644E-02);
ENDSEC;
END-ISO-10303-21;
